<svg width="60" height="60" viewBox="0 0 60 60" fill="none" xmlns="http://www.w3.org/2000/svg">
<g clip-path="url(#clip0)">
<path d="M51.6753 45.6389C51.6749 45.6389 51.6749 45.6389 51.6753 45.6389L42.5882 39.6673C40.4248 38.2459 37.6169 38.3695 35.6004 39.974C33.8339 41.3798 31.2988 41.2361 29.7025 39.6398L20.4763 30.4136C18.8805 28.8178 18.7368 26.2822 20.1421 24.5162C21.747 22.4992 21.8702 19.6908 20.4488 17.5279L14.4772 8.44078C13.4331 6.85187 11.8135 5.90109 9.91651 5.76331C8.01953 5.62643 6.28002 6.33322 5.01796 7.75505C-1.97671 15.6314 -1.61828 27.6381 5.8337 35.0897L25.0265 54.2829C28.9037 58.1602 34.0138 60.1167 39.1344 60.1167C43.8544 60.1167 48.5831 58.4536 52.3615 55.0986C53.7829 53.8361 54.4901 52.0961 54.3528 50.1996C54.215 48.3031 53.2642 46.6835 51.6753 45.6389V45.6389ZM50.0269 52.4701C43.5399 58.2311 33.6499 57.9354 27.5117 51.7972L8.31891 32.6044C2.18072 26.4662 1.885 16.5762 7.64599 10.0892C8.13397 9.53942 8.74143 9.26156 9.45509 9.26156C9.52284 9.26156 9.59196 9.2643 9.66245 9.26934C10.4654 9.32747 11.0971 9.69826 11.5393 10.3716L17.5109 19.4583C18.105 20.3628 18.0579 21.489 17.3914 22.3271C14.8718 25.4935 15.1296 30.0382 17.9906 32.8992L27.2169 42.1255C30.0779 44.9866 34.6226 45.2443 37.789 42.7247C38.6272 42.0578 39.7533 42.0111 40.6574 42.6053L49.7445 48.5768C50.4174 49.019 50.7882 49.6507 50.8463 50.4537C50.9049 51.257 50.6289 51.9355 50.0269 52.4701V52.4701Z" fill="white"/>
<path d="M59.4834 0.630344C59.1405 0.287934 58.6915 0.117188 58.2424 0.117188C57.792 0.117188 57.3411 0.289308 56.9977 0.633548L37.3857 20.296L37.3861 13.9436C37.3861 12.9731 36.5992 12.1862 35.6288 12.1862C34.6578 12.1862 33.8709 12.9731 33.8709 13.9436L33.8705 24.5473C33.8705 25.0133 34.0554 25.4605 34.3855 25.7901C34.7151 26.1197 35.1618 26.3051 35.6278 26.3051H46.232C47.2029 26.3051 47.9898 25.5182 47.9898 24.5473C47.9898 23.5768 47.2029 22.7899 46.232 22.7899H39.8636L59.4866 3.11602C60.1724 2.42845 60.171 1.31562 59.4834 0.630344V0.630344Z" fill="white"/>
</g>
<defs>
<clipPath id="clip0">
<rect width="60" height="60" fill="white"/>
</clipPath>
</defs>
</svg>
