<svg width="60" height="60" viewBox="0 0 60 60" fill="none" xmlns="http://www.w3.org/2000/svg">
<path d="M50.5359 44.1701C53.2751 42.3226 55.0801 39.191 55.0801 35.6456C55.0801 29.9799 50.4708 25.3706 44.8051 25.3706C39.1395 25.3706 34.5301 29.9799 34.5301 35.6456C34.5301 39.1909 36.335 42.3226 39.0743 44.1701C34.5573 46.0163 31.12 49.976 30.0001 54.8138C28.8803 49.9759 25.4429 46.0163 20.9259 44.1701C23.6651 42.3225 25.47 39.191 25.47 35.6456C25.47 29.9799 20.8607 25.3706 15.195 25.3706C9.52934 25.3706 4.92 29.9799 4.92 35.6456C4.92 39.1909 6.72492 42.3226 9.46418 44.1701C3.91816 46.4371 0 51.89 0 58.2419V59.9997H60V58.2419C60 51.89 56.0818 46.4371 50.5359 44.1701ZM8.43563 35.6457C8.43551 31.9186 11.4677 28.8863 15.195 28.8863C18.9221 28.8863 21.9544 31.9186 21.9544 35.6457C21.9544 39.3729 18.9221 42.4051 15.195 42.4051C11.4679 42.4051 8.43563 39.3729 8.43563 35.6457ZM3.6477 56.4841C4.49813 50.8753 9.3525 46.5626 15.195 46.5626C21.0375 46.5626 25.8919 50.8752 26.7423 56.4841H3.6477ZM38.0456 35.6457C38.0456 31.9186 41.0779 28.8863 44.805 28.8863C48.5321 28.8863 51.5644 31.9186 51.5644 35.6457C51.5644 39.3729 48.5321 42.4051 44.805 42.4051C41.0779 42.4051 38.0456 39.3729 38.0456 35.6457ZM33.2577 56.4841C34.1081 50.8753 38.9625 46.5626 44.805 46.5626C50.6476 46.5626 55.502 50.8752 56.3524 56.4841H33.2577Z" fill="white"/>
<path d="M13.2422 0V21.7579H25.7179L30 24.6127L34.2823 21.7579H46.7578V0H13.2422ZM43.2422 18.2422H33.2179L30 20.3873L26.7823 18.2422H16.7578V3.51562H43.2422V18.2422Z" fill="white"/>
<path d="M34.425 5.50146L29.3752 10.2197L26.6666 8.22713L24.5834 11.0591L29.6427 14.7808L36.825 8.07033L34.425 5.50146Z" fill="white"/>
</svg>
