<svg width="60" height="60" viewBox="0 0 60 60" fill="none" xmlns="http://www.w3.org/2000/svg">
<path d="M37.0862 0C24.4917 0 14.2451 10.2466 14.2451 22.841C14.2451 27.2342 15.493 31.3403 17.6509 34.8267L0 52.5462L7.45377 60L25.1056 42.2795C28.591 44.4356 32.6953 45.6821 37.0862 45.6821C49.6806 45.6821 59.9272 35.4359 59.9272 22.841C59.9272 10.2466 49.6811 0 37.0862 0V0ZM7.44919 55.0255L4.9649 52.5412L7.74582 49.7498L10.2301 52.234L7.44919 55.0255ZM12.7098 49.7443L10.2255 47.26L19.7511 37.6973C20.5147 38.5872 21.3455 39.4176 22.2359 40.1811L12.7098 49.7443ZM37.0862 42.1683C26.4294 42.1683 17.7589 33.4982 17.7589 22.841C17.7589 12.1843 26.4294 3.51379 37.0862 3.51379C47.7434 3.51379 56.4134 12.1843 56.4134 22.841C56.4134 33.4982 47.7434 42.1683 37.0862 42.1683Z" fill="white"/>
<path d="M37.0862 7.02783C28.3667 7.02783 21.2732 14.1218 21.2732 22.8408C21.2732 31.5603 28.3667 38.6538 37.0862 38.6538C45.8057 38.6538 52.8992 31.5603 52.8992 22.8408C52.8992 14.1218 45.8057 7.02783 37.0862 7.02783V7.02783ZM37.0862 35.14C30.3044 35.14 24.787 29.6226 24.787 22.8408C24.787 16.0591 30.3044 10.5416 37.0862 10.5416C43.868 10.5416 49.3854 16.0591 49.3854 22.8408C49.3854 29.6226 43.868 35.14 37.0862 35.14Z" fill="white"/>
<path d="M35.3293 25.6275L31.3005 21.5988L28.8158 24.0835L35.3293 30.597L45.3566 20.5697L42.8719 18.085L35.3293 25.6275Z" fill="white"/>
</svg>
