<svg width="60" height="60" viewBox="0 0 60 60" fill="none" xmlns="http://www.w3.org/2000/svg">
<g clip-path="url(#clip0)">
<path d="M20.2207 45.9262C20.2055 45.8512 20.1832 45.7773 20.1539 45.7059C20.1246 45.6355 20.0883 45.5676 20.0461 45.5043C20.0039 45.4398 19.9547 45.3801 19.9008 45.3262C19.8469 45.2723 19.7871 45.223 19.7227 45.1809C19.6594 45.1387 19.5914 45.1023 19.5199 45.073C19.4496 45.0438 19.3758 45.0203 19.3008 45.0063C19.1496 44.9758 18.9938 44.9758 18.8438 45.0063C18.7688 45.0203 18.6949 45.0438 18.6234 45.073C18.5531 45.1023 18.4852 45.1387 18.4219 45.1809C18.3574 45.223 18.2977 45.2723 18.2437 45.3262C18.1898 45.3801 18.1406 45.4398 18.0984 45.5043C18.0551 45.5676 18.0199 45.6355 17.9906 45.7059C17.9613 45.7773 17.9379 45.8512 17.9238 45.9262C17.9086 46.0012 17.9004 46.0785 17.9004 46.1547C17.9004 46.2309 17.9086 46.3082 17.9238 46.3832C17.9379 46.4582 17.9613 46.532 17.9906 46.6023C18.0199 46.6738 18.0551 46.7418 18.0984 46.8051C18.1406 46.8695 18.1898 46.9293 18.2437 46.9832C18.2977 47.0371 18.3574 47.0863 18.4219 47.1285C18.4852 47.1708 18.5531 47.2071 18.6234 47.2364C18.6949 47.2657 18.7688 47.2892 18.8438 47.3032C18.9188 47.3185 18.9961 47.3267 19.0723 47.3267C19.1484 47.3267 19.2258 47.3185 19.3008 47.3032C19.3758 47.2892 19.4496 47.2657 19.5199 47.2364C19.5914 47.2071 19.6594 47.1707 19.7227 47.1285C19.7871 47.0863 19.8469 47.0371 19.9008 46.9832C19.9547 46.9293 20.0039 46.8695 20.0461 46.8051C20.0883 46.7418 20.1246 46.6738 20.1539 46.6023C20.1832 46.532 20.2055 46.4582 20.2207 46.3832C20.2359 46.3082 20.2441 46.2309 20.2441 46.1547C20.2441 46.0785 20.2359 46.0012 20.2207 45.9262Z" fill="white"/>
<path d="M53.9054 46.2873C53.9009 46.2756 53.8962 46.264 53.8913 46.2525C52.8127 43.7286 50.283 42.7958 47.2894 43.8183L39.1252 46.076C38.6531 44.6466 37.4757 43.4302 35.811 42.8123C35.8007 42.8086 35.7904 42.8048 35.7799 42.8013L26.8056 39.7554C26.0586 38.7899 23.7189 36.3193 19.338 36.3193C16.2765 36.3193 13.5682 38.4196 12.0187 40.7088H1.17188C0.524648 40.7088 0 41.2335 0 41.8807V56.6553C0 57.3026 0.524648 57.8272 1.17188 57.8272H8.13949C8.78672 57.8272 9.31137 57.3026 9.31137 56.6553V55.6436H12.5789C13.2261 55.6436 13.7508 55.1189 13.7508 54.4717V54.1344C15.6555 54.3006 16.282 54.6619 18.0314 55.6706C19.3767 56.4464 21.41 57.6189 25.0717 59.2652C25.0887 59.2728 25.1059 59.2801 25.1231 59.2869C25.8259 59.5634 27.1997 59.9977 28.8934 59.9977C30.0723 59.9977 31.4065 59.7871 32.7759 59.1663L50.8218 52.7051C50.8539 52.6936 50.8855 52.6807 50.9164 52.6664C52.6411 51.8729 55.2111 49.6366 53.9054 46.2873ZM6.96762 55.4834H2.34375V43.0525H6.96762V55.4834ZM11.407 53.2997H9.31137V43.0525H11.407V53.2997ZM49.98 50.5168L31.9423 56.9752C31.9264 56.9808 31.905 56.9892 31.8894 56.9955C31.8736 57.002 31.8578 57.0088 31.8422 57.0159C29.33 58.1705 26.9421 57.4793 26.0062 57.1154C22.4693 55.5239 20.5815 54.4354 19.2022 53.64C17.2846 52.5342 16.3605 52.0013 13.7508 51.7857V42.3472C14.8616 40.5266 17.0157 38.663 19.3382 38.663C23.3209 38.663 25.0085 41.2534 25.0748 41.3579C25.2179 41.5907 25.4379 41.7661 25.6965 41.8539L35.01 45.0149C36.4975 45.5732 37.2836 46.847 36.9223 48.1173C36.7555 48.7039 36.3702 49.1905 35.8375 49.4873C35.3093 49.7816 34.6988 49.8544 34.1168 49.6934L23.6176 46.3662C23.0003 46.1706 22.3419 46.5123 22.1464 47.1293C21.9509 47.7463 22.2926 48.4049 22.9096 48.6005L33.427 51.9334C33.4382 51.9369 33.4493 51.9403 33.4605 51.9435C33.8804 52.0629 34.3079 52.122 34.7329 52.122C35.5107 52.122 36.2801 51.9238 36.9783 51.5347C38.0579 50.9332 38.8386 49.9472 39.1766 48.7583C39.2036 48.6634 39.2275 48.5685 39.2482 48.4736L48.047 46.0361C49.3178 45.602 50.9859 45.4455 51.7287 47.1561C52.4974 49.1644 50.4994 50.2691 49.98 50.5168Z" fill="white"/>
<path d="M42.0773 15.4149C42.0621 15.3399 42.0398 15.2661 42.0094 15.1946C41.9801 15.1243 41.9449 15.0563 41.9016 14.9931C41.8594 14.9286 41.8102 14.8688 41.7563 14.8149C41.7023 14.761 41.6426 14.7118 41.5781 14.6696C41.5148 14.6274 41.4469 14.5911 41.3766 14.5618C41.3051 14.5325 41.2312 14.5091 41.1574 14.495C41.0062 14.4646 40.8504 14.4646 40.6992 14.495C40.6242 14.5091 40.5504 14.5325 40.4801 14.5618C40.4086 14.5911 40.3406 14.6274 40.2773 14.6696C40.2129 14.7118 40.1531 14.761 40.0992 14.8149C40.0453 14.8688 39.9961 14.9286 39.9539 14.9931C39.9117 15.0563 39.8754 15.1243 39.8461 15.1946C39.8168 15.2661 39.7934 15.3399 39.7793 15.4149C39.7641 15.4899 39.7559 15.5673 39.7559 15.6435C39.7559 15.7196 39.7641 15.797 39.7793 15.872C39.7934 15.947 39.8168 16.0208 39.8461 16.0911C39.8754 16.1626 39.9117 16.2306 39.9539 16.2938C39.9961 16.3583 40.0453 16.4181 40.0992 16.472C40.1531 16.5259 40.2129 16.5751 40.2773 16.6173C40.3406 16.6595 40.4086 16.6958 40.4801 16.7251C40.5504 16.7544 40.6242 16.7767 40.6992 16.7919C40.7742 16.8071 40.8516 16.8153 40.9277 16.8153C41.0039 16.8153 41.0812 16.8071 41.1574 16.7919C41.2312 16.7767 41.3051 16.7544 41.3766 16.7251C41.4469 16.6958 41.5148 16.6595 41.5781 16.6173C41.6426 16.5751 41.7023 16.5259 41.7563 16.472C41.8102 16.4181 41.8594 16.3583 41.9016 16.2938C41.9449 16.2306 41.9801 16.1626 42.0094 16.0911C42.0398 16.0208 42.0621 15.947 42.0773 15.872C42.0926 15.797 42.0996 15.7196 42.0996 15.6435C42.0996 15.5673 42.0926 15.4899 42.0773 15.4149Z" fill="white"/>
<path d="M58.8281 3.97132H51.8605C51.2133 3.97132 50.6886 4.49597 50.6886 5.14319V6.15499H47.4211C46.7739 6.15499 46.2492 6.67964 46.2492 7.32687V7.66413C44.3444 7.49784 43.718 7.13667 41.9687 6.12792C40.6234 5.35214 38.5901 4.17968 34.9283 2.53331C34.9113 2.52558 34.8942 2.51843 34.8767 2.51163C33.6848 2.04265 30.561 1.11991 27.2245 2.63198L22.5089 4.32042L18.534 0.345654C18.0764 -0.111963 17.3344 -0.111963 16.8767 0.345654L3.82698 13.3953C3.40487 13.8175 3.32389 14.5496 3.82698 15.0527L26.1262 37.3519C26.4831 37.7089 27.3186 37.8168 27.7836 37.3519L39.6975 25.4382C40.0072 25.4649 40.3287 25.4793 40.6618 25.4793C43.7235 25.4793 46.4317 23.3791 47.981 21.09H58.8281C59.4753 21.09 60 20.5653 60 19.9181V5.14319C60 4.49597 59.4753 3.97132 58.8281 3.97132ZM17.7053 2.83155L20.3762 5.50249C19.5823 5.99351 18.6643 6.25624 17.7053 6.25624C16.7461 6.25624 15.8283 5.99362 15.0343 5.50249L17.7053 2.83155ZM8.98393 16.895L6.313 14.2239L8.98393 11.553C9.47495 12.3469 9.73768 13.2649 9.73768 14.2239C9.73768 15.183 9.47507 16.1009 8.98393 16.895ZM26.955 34.8659L24.2845 32.1955C25.9149 31.1893 27.9948 31.1893 29.6253 32.1955L26.955 34.8659ZM31.3138 30.5073C28.7242 28.6287 25.1858 28.6287 22.5962 30.5073L10.6723 18.5832C11.5874 17.3246 12.0814 15.8128 12.0814 14.2239C12.0814 12.635 11.5875 11.1233 10.6723 9.86468L13.3461 7.19093C14.6047 8.10605 16.1164 8.60011 17.7054 8.60011C19.2943 8.60011 20.806 8.10605 22.0646 7.19093L24.5993 9.72558C24.0524 9.80632 23.519 9.98655 23.0217 10.2637C22.1817 10.7317 21.5226 11.4326 21.1123 12.2806C19.7904 12.5254 18.5666 13.1654 17.6066 14.1253C15.0021 16.7299 15.0021 20.9677 17.6067 23.5723C18.9089 24.8745 20.6195 25.5257 22.3302 25.5257C24.0408 25.5257 25.7515 24.8746 27.0538 23.5723C27.901 22.7251 28.4946 21.6837 28.7919 20.5489L32.7486 21.8917C32.3032 23.9552 32.7594 26.126 33.99 27.831L31.3138 30.5073ZM24.189 18.9862C24.1993 18.99 24.2096 18.9937 24.2201 18.9972L26.5633 19.7926C26.3864 20.5912 25.986 21.3255 25.3965 21.9151C23.7057 23.6056 20.9546 23.6058 19.2641 21.9151C17.5733 20.2244 17.5733 17.4734 19.2641 15.7826C19.6719 15.3746 20.1532 15.0557 20.6776 14.8395C20.8939 16.6398 22.1901 18.2444 24.189 18.9862ZM35.6785 26.1424C35.2262 25.4053 34.9703 24.564 34.9298 23.7053C35.4912 24.1112 36.1772 24.5088 36.9965 24.8244L35.6785 26.1424ZM46.2491 19.4508C45.1384 21.2717 42.9842 23.1353 40.6618 23.1353C40.2273 23.1353 39.8201 23.1044 39.4393 23.0493C39.4378 23.0491 39.4363 23.0489 39.4348 23.0486C36.904 22.681 35.5426 21.2426 35.0939 20.6731C35.07 20.638 34.9681 20.5047 34.953 20.4826C34.8165 20.2386 34.5927 20.0424 34.3072 19.9455L24.9899 16.7832C23.503 16.2251 22.717 14.9519 23.0773 13.6821C23.0775 13.6812 23.0777 13.6804 23.078 13.6796C23.0783 13.6787 23.0785 13.6776 23.0788 13.6767C23.2462 13.0919 23.6308 12.6069 24.1624 12.3107C24.6905 12.0165 25.3009 11.9435 25.8831 12.1048L36.3823 15.4319C36.9994 15.6277 37.658 15.2858 37.8534 14.6688C38.0489 14.0518 37.7073 13.3932 37.0903 13.1976L28.7401 10.5515L28.6672 10.4786C28.6665 10.4779 28.6658 10.4771 28.665 10.4764L24.3419 6.15335L28.0577 4.8228C28.0703 4.81823 28.0857 4.81249 28.0981 4.80745C28.1013 4.80616 28.1074 4.80382 28.1105 4.80253C28.1264 4.79608 28.1421 4.78929 28.1577 4.78214C30.6697 3.62761 33.0575 4.31866 33.9935 4.68265C37.5306 6.27417 39.4185 7.36272 40.7978 8.15808C42.7154 9.26397 43.6394 9.79683 46.2491 10.0123V19.4508V19.4508ZM50.6886 18.746H48.593V8.49874H50.6886V18.746ZM57.6562 18.746H53.0324V6.31507H57.6562V18.746Z" fill="white"/>
</g>
<defs>
<clipPath id="clip0">
<rect width="60" height="60" fill="white"/>
</clipPath>
</defs>
</svg>
