<svg width="60" height="60" viewBox="0 0 60 60" fill="none" xmlns="http://www.w3.org/2000/svg">
<path d="M38.75 6.24995V1.25004C38.75 0.559686 38.1903 0 37.5 0H27.5C26.8097 0 26.25 0.559686 26.25 1.25004V8.40502C24.6505 8.86662 23.108 9.50647 21.6512 10.3125L16.59 5.24999C16.1019 4.76202 15.3107 4.76202 14.8225 5.24999L7.74999 12.3225C7.26202 12.8106 7.26202 13.6018 7.74999 14.09L12.8125 19.1512C12.0067 20.608 11.3669 22.1505 10.905 23.75H3.75004C3.05969 23.75 2.5 24.3097 2.5 25V35C2.5 35.6903 3.05969 36.25 3.75004 36.25H10.905C11.3663 37.8495 12.0056 39.392 12.8113 40.8488L7.75011 45.91C7.26214 46.3981 7.26214 47.1893 7.75011 47.6775L14.8226 54.75C15.3107 55.238 16.1019 55.238 16.5901 54.75L21.6513 49.6875C23.1081 50.4933 24.6506 51.1331 26.2501 51.595V58.75C26.2501 59.4403 26.8098 60 27.5001 60H37.5C38.1903 60 38.75 59.4403 38.75 58.75V52.4999H36.2501V57.4999H28.7501V50.6337C28.7501 50.0565 28.3549 49.5543 27.7938 49.4187C25.7842 48.9326 23.8628 48.136 22.0989 47.0575C21.6064 46.7568 20.9721 46.8321 20.5638 47.2399L15.7063 52.0975L10.4025 46.7937L15.2601 41.9362C15.6686 41.5278 15.7439 40.8926 15.4425 40.4C14.3631 38.6369 13.5663 36.7157 13.0813 34.7062C12.9457 34.1451 12.4435 33.7499 11.8663 33.7499H5.00007V26.2499H11.8663C12.4435 26.2499 12.9457 25.8548 13.0813 25.2937C13.5674 23.2841 14.364 21.3627 15.4425 19.5988C15.7432 19.1063 15.6679 18.472 15.2601 18.0637L10.4025 13.2062L15.7063 7.90241L20.5638 12.7599C20.9722 13.1685 21.6074 13.2438 22.1 12.9424C23.8631 11.863 25.7843 11.0662 27.7938 10.5812C28.3549 10.4456 28.7501 9.94334 28.7501 9.36619V2.49996H36.2501V6.24995H38.75Z" fill="white"/>
<path d="M48.7499 55V57.5H46.25V55H43.75V58.75C43.75 59.4403 44.3097 60 45 60H50.0001C50.6904 60 51.2501 59.4403 51.2501 58.75V55H48.7499V55Z" fill="white"/>
<path d="M56.2498 33.75H38.7499C38.0596 33.75 37.4999 34.3097 37.4999 35V40.0001C37.4999 40.6904 38.0596 41.2501 38.7499 41.2501H41.2499V55C41.2499 55.6904 41.8096 56.2501 42.4999 56.2501H52.4998C53.1902 56.2501 53.7499 55.6904 53.7499 55V41.25H56.2498C56.9402 41.25 57.4999 40.6903 57.4999 40V34.9999C57.4999 34.3097 56.9402 33.75 56.2498 33.75ZM54.9998 38.75H52.4998C51.8095 38.75 51.2498 39.3097 51.2498 40.0001V53.75H43.7498V40C43.7498 39.3096 43.1901 38.7499 42.4998 38.7499H39.9998V36.25H54.9998V38.75V38.75Z" fill="white"/>
<path d="M48.75 38.7505H42.5004V41.2504H48.75V38.7505Z" fill="white"/>
<path d="M50 0H45C43.6193 0 42.5 1.11926 42.5 2.49996V7.49999C42.5005 8.39272 42.977 9.21736 43.75 9.66373V35C43.75 35.6903 44.3097 36.25 45.0001 36.25H50.0001C50.6905 36.25 51.2501 35.6903 51.2501 35V9.66373C52.023 9.21736 52.4996 8.39272 52.4999 7.49999V2.49996C52.4999 1.11926 51.3808 0 50 0ZM50 7.49999C49.3096 7.49999 48.75 8.05967 48.75 8.75002V33.7499H46.25V8.75002C46.25 8.05967 45.6903 7.49999 45 7.49999V2.49996H50V7.49999V7.49999Z" fill="white"/>
<path d="M48.7503 43.7495H46.2504V46.2495H48.7503V43.7495Z" fill="white"/>
<path d="M48.7503 48.75H46.2504V51.25H48.7503V48.75Z" fill="white"/>
<path d="M32.5002 18.75C26.2871 18.7499 21.2502 23.7866 21.2501 29.9999C21.25 36.213 26.2868 41.25 32.5 41.25V38.75C30.4025 38.7493 28.375 37.9952 26.7869 36.625C23.1279 33.4683 22.7209 27.943 25.8778 24.2842C29.0346 20.6253 34.5599 20.2182 38.2187 23.3751L39.8524 21.4852C37.8093 19.7208 35.1998 18.75 32.5002 18.75Z" fill="white"/>
<path d="M32.4999 25C29.7385 25 27.4999 27.2386 27.4999 30C27.4999 32.7614 29.7384 35 32.4999 35C35.2614 35 37.4999 32.7614 37.4999 30C37.4999 27.2386 35.2614 25 32.4999 25ZM32.4999 32.5C31.1193 32.5 29.9999 31.3807 29.9999 30C29.9999 28.6193 31.1192 27.5001 32.4999 27.5001C33.8806 27.5001 34.9999 28.6193 34.9999 30C35 31.3807 33.8806 32.5 32.4999 32.5Z" fill="white"/>
</svg>
