<svg width="70" height="70" viewBox="0 0 70 70" fill="none" xmlns="http://www.w3.org/2000/svg">
<path d="M54.4456 32.2686L23.2947 1.11828C22.5742 0.397233 21.6125 0 20.5869 0C19.5614 0 18.5996 0.397233 17.8792 1.11828L15.5851 3.41176C14.0924 4.90622 14.0924 7.33514 15.5851 8.82733L41.7433 34.9855L15.5561 61.1727C14.8356 61.8937 14.4378 62.8549 14.4378 63.8799C14.4378 64.906 14.8356 65.8672 15.5561 66.5888L17.8501 68.8817C18.5712 69.6028 19.5324 70 20.5579 70C21.5834 70 22.5452 69.6028 23.2657 68.8817L54.4456 37.7029C55.1678 36.9796 55.5645 36.0139 55.5622 34.9872C55.5645 33.9566 55.1678 32.9914 54.4456 32.2686Z" fill="#F1BC52"/>
</svg>
