<svg width="60" height="60" viewBox="0 0 60 60" fill="none" xmlns="http://www.w3.org/2000/svg">
<g clip-path="url(#clip0)">
<path d="M43.2096 19.8607C42.1661 18.9818 40.8411 18.5618 39.4837 18.6786C38.1244 18.7951 36.892 19.434 36.0136 20.4775L28.382 29.5404L24.6988 25.71C22.7471 23.6799 19.5075 23.6164 17.4777 25.5683C16.4942 26.5136 15.9381 27.7855 15.9114 29.1494C15.8845 30.5134 16.3907 31.8061 17.3361 32.7894L24.952 40.7102C25.9097 41.7063 27.2513 42.2776 28.6332 42.2776C28.6889 42.2776 28.7446 42.2765 28.8016 42.2748C30.2467 42.2272 31.6092 41.5657 32.5399 40.4601L43.8265 27.0568C44.7052 26.0135 45.125 24.6903 45.0085 23.3311C44.8918 21.9718 44.253 20.7392 43.2096 19.8607V19.8607ZM42.0337 25.5468L30.7471 38.9504C30.2435 39.5485 29.5063 39.9063 28.7259 39.9321C27.9456 39.9567 27.1812 39.6467 26.6416 39.0856L19.0256 31.1648C18.5141 30.6327 18.2403 29.9332 18.2548 29.1952C18.2692 28.4572 18.5701 27.7691 19.1021 27.2575C19.6372 26.7431 20.3276 26.4875 21.017 26.4875C21.7428 26.4875 22.4679 26.771 23.0095 27.3343L27.5951 32.1032C27.8252 32.3428 28.1458 32.4722 28.4783 32.4622C28.8104 32.4513 29.1221 32.2999 29.3361 32.0458L37.8065 21.9869C38.2819 21.4223 38.9485 21.0766 39.684 21.0136C40.4184 20.9502 41.1354 21.1776 41.7 21.6532C42.2646 22.1286 42.6103 22.7955 42.6733 23.5309C42.7364 24.2662 42.5092 24.9823 42.0337 25.5468V25.5468Z" fill="#1FA391"/>
<path d="M30 6.80811C17.2119 6.80811 6.80811 17.2119 6.80811 30C6.80811 42.7881 17.2119 53.192 30 53.192C42.7881 53.192 53.1919 42.7881 53.1919 30C53.1919 17.2119 42.7881 6.80811 30 6.80811V6.80811ZM30 50.8482C18.5042 50.8482 9.15186 41.4957 9.15186 30.0001C9.15186 18.5045 18.5042 9.15186 30 9.15186C41.4957 9.15186 50.8481 18.5044 50.8481 30C50.8481 41.4956 41.4957 50.8482 30 50.8482V50.8482Z" fill="#1FA391"/>
<path d="M58.3989 34.0285C59.1493 32.8619 60 31.5395 60 29.9999C60 28.4603 59.1493 27.1379 58.3989 25.9713C57.8965 25.1903 57.422 24.4526 57.2698 23.784C57.1073 23.0706 57.216 22.1739 57.3308 21.2244C57.5029 19.8042 57.6806 18.3358 57.034 16.9974C56.3761 15.6355 55.0452 14.8196 53.8711 14.0996C53.0665 13.6062 52.3065 13.1403 51.8645 12.5875C51.4178 12.0288 51.1294 11.1816 50.8239 10.2845C50.382 8.98619 49.881 7.51467 48.7055 6.5774C47.5361 5.64506 45.9925 5.48322 44.6305 5.34061C43.6827 5.24123 42.7874 5.14748 42.1356 4.83354C41.5061 4.53026 40.8865 3.89885 40.2305 3.23053C39.2619 2.24346 38.1641 1.12479 36.675 0.786818C35.2411 0.461388 33.857 0.958263 32.5181 1.43873C31.6076 1.76545 30.7478 2.07412 30 2.07412C29.2522 2.07412 28.3923 1.76545 27.4819 1.43873C26.1429 0.958146 24.7586 0.461154 23.3249 0.786818C21.8359 1.1249 20.7381 2.24358 19.7694 3.23053C19.1135 3.89885 18.4941 4.53026 17.8645 4.83354C17.2126 5.14748 16.3174 5.24123 15.3695 5.34061C14.0075 5.48322 12.4638 5.64494 11.2945 6.57729C10.1191 7.51443 9.61816 8.98596 9.17625 10.2842C8.87086 11.1813 8.58234 12.0287 8.13551 12.5874C7.69348 13.1403 6.9334 13.6062 6.12891 14.0996C4.95469 14.8196 3.62391 15.6354 2.96602 16.9974C2.31937 18.3356 2.49727 19.8041 2.66918 21.2242C2.78414 22.1737 2.89277 23.0705 2.73023 23.7839C2.57801 24.4526 2.10352 25.1903 1.60113 25.9713C0.850664 27.1381 0 28.4604 0 29.9999C0 31.5395 0.850664 32.8619 1.60113 34.0285C2.10352 34.8095 2.57801 35.5472 2.73023 36.2158C2.89266 36.9292 2.78402 37.8259 2.66918 38.7754C2.49715 40.1956 2.31937 41.664 2.96602 43.0024C3.62391 44.3643 4.9548 45.1803 6.12891 45.9003C6.93352 46.3936 7.69348 46.8596 8.13551 47.4123C8.58223 47.971 8.87063 48.8182 9.17613 49.7153C9.61805 51.0136 10.119 52.4851 11.2945 53.4224C12.4639 54.3547 14.0075 54.5166 15.3695 54.6592C16.3173 54.7586 17.2126 54.8523 17.8644 55.1663C18.4939 55.4696 19.1135 56.101 19.7695 56.7693C20.7381 57.7564 21.8359 58.875 23.325 59.213C24.7589 59.5384 26.1431 59.0417 27.4819 58.5611C28.3924 58.2344 29.2522 57.9257 30 57.9257C30.7478 57.9257 31.6077 58.2344 32.5181 58.5611C33.558 58.9343 34.6252 59.3173 35.7218 59.3173C36.037 59.3173 36.3548 59.2855 36.6751 59.2129C38.1641 58.8748 39.2619 57.7561 40.2306 56.7692C40.8865 56.1008 41.5059 55.4694 42.1355 55.1662C42.7874 54.8522 43.6826 54.7585 44.6305 54.6591C45.9925 54.5165 47.5362 54.3547 48.7055 53.4224C49.8809 52.4853 50.3818 51.0137 50.8238 49.7155C51.1291 48.8183 51.4177 47.971 51.8645 47.4123C52.3065 46.8594 53.0666 46.3935 53.8711 45.9001C55.0453 45.1801 56.3761 44.3643 57.034 43.0023C57.6806 41.664 57.5027 40.1956 57.3308 38.7755C57.2159 37.826 57.1072 36.9292 57.2698 36.2158C57.422 35.5472 57.8965 34.8095 58.3989 34.0285V34.0285ZM56.4278 32.7606C55.838 33.6774 55.2281 34.6255 54.9845 35.6957C54.7317 36.8065 54.8701 37.9507 55.0042 39.0574C55.1416 40.1921 55.2713 41.2637 54.9238 41.983C54.5648 42.7258 53.6329 43.2973 52.646 43.9023C51.7051 44.4792 50.732 45.076 50.034 45.9488C49.3311 46.8277 48.9621 47.912 48.6052 48.9605C48.2339 50.0508 47.8834 51.0806 47.2445 51.5901C46.6107 52.0954 45.5303 52.2085 44.3863 52.3283C43.2807 52.4441 42.1376 52.5639 41.1183 53.0549C40.1198 53.5358 39.3257 54.3451 38.5576 55.1277C37.7432 55.9579 36.9736 56.7419 36.1563 56.9274C35.3889 57.1019 34.3793 56.739 33.3098 56.3551C32.2507 55.9751 31.1555 55.5819 30 55.5819C28.8445 55.5819 27.7493 55.975 26.6902 56.3551C25.6207 56.7388 24.6111 57.1017 23.8438 56.9274C23.0263 56.7419 22.257 55.9579 21.4424 55.1278C20.6742 54.3451 19.8802 53.5358 18.8816 53.055C17.8624 52.564 16.7193 52.4442 15.6137 52.3285C14.4697 52.2087 13.3894 52.0955 12.7556 51.5901C12.1165 51.0805 11.7659 50.0506 11.3947 48.9603C11.0378 47.9119 10.6687 46.8277 9.96598 45.9489C9.26789 45.076 8.29488 44.4794 7.35398 43.9023C6.36727 43.2974 5.43516 42.7259 5.07621 41.983C4.72863 41.2636 4.85848 40.1919 4.9957 39.0573C5.12977 37.9508 5.26828 36.8066 5.01551 35.6958C4.77187 34.6256 4.16203 33.6775 3.57223 32.7607C2.94047 31.7785 2.34375 30.8508 2.34375 29.9999C2.34375 29.149 2.94047 28.2213 3.57223 27.2392C4.16203 26.3224 4.77187 25.3743 5.01551 24.3041C5.26828 23.1933 5.12988 22.0491 4.99582 20.9424C4.85836 19.8078 4.72875 18.7361 5.07621 18.0168C5.43516 17.274 6.36715 16.7025 7.35398 16.0975C8.29488 15.5206 9.26801 14.9238 9.96598 14.051C10.6689 13.1721 11.0379 12.0878 11.3948 11.0393C11.7661 9.94901 12.1166 8.91916 12.7555 8.40975C13.3893 7.90444 14.4697 7.79135 15.6137 7.67147C16.7193 7.55568 17.8624 7.43592 18.8817 6.9449C19.8802 6.46397 20.6743 5.65467 21.4424 4.87209C22.2568 4.04194 23.0264 3.25795 23.8437 3.07244C24.6111 2.89842 25.6208 3.26088 26.6902 3.64467C27.7493 4.02471 28.8445 4.41787 30 4.41787C31.1555 4.41787 32.2507 4.02483 33.3098 3.64467C34.3793 3.261 35.3889 2.89795 36.1562 3.07244C36.9737 3.25795 37.743 4.04194 38.5576 4.87197C39.3258 5.65467 40.1198 6.46397 41.1184 6.94479C42.1376 7.4358 43.2807 7.55557 44.3863 7.67135C45.5303 7.79111 46.6106 7.90432 47.2444 8.40975C47.8835 8.91928 48.2341 9.94924 48.6053 11.0396C48.9622 12.0879 49.3313 13.1721 50.034 14.0509C50.7321 14.9238 51.7051 15.5204 52.646 16.0975C53.6327 16.7024 54.5648 17.2739 54.9238 18.0168C55.2714 18.7362 55.1415 19.8079 55.0043 20.9425C54.8702 22.049 54.7317 23.1932 54.9845 24.304C55.2281 25.3742 55.838 26.3223 56.4278 27.2391C57.0595 28.2215 57.6562 29.1491 57.6562 29.9999C57.6562 30.8508 57.0595 31.7785 56.4278 32.7606V32.7606Z" fill="#1FA391"/>
</g>
<defs>
<clipPath id="clip0">
<rect width="60" height="60" fill="white"/>
</clipPath>
</defs>
</svg>
