<svg width="60" height="60" viewBox="0 0 60 60" fill="none" xmlns="http://www.w3.org/2000/svg">
<path d="M51.2133 8.78672C45.5469 3.12059 38.0133 0 30 0C21.9867 0 14.4531 3.12059 8.78672 8.78672C3.12059 14.4531 0 21.9867 0 30C0 38.8071 3.85102 47.1364 10.5656 52.8521C10.9352 53.1669 11.49 53.1223 11.8045 52.7525C12.1192 52.3829 12.0746 51.8283 11.7049 51.5136C5.38336 46.1325 1.75781 38.291 1.75781 30C1.75781 22.4562 4.69547 15.364 10.0298 10.0297C15.364 4.69547 22.4563 1.75781 30 1.75781C37.5437 1.75781 44.636 4.69547 49.9702 10.0297C55.3045 15.364 58.2422 22.4562 58.2422 30C58.2422 37.5438 55.3045 44.636 49.9702 49.9703C44.636 55.3045 37.5437 58.2422 30 58.2422C24.8336 58.2422 19.7797 56.8344 15.3847 54.171C14.9696 53.9195 14.4292 54.052 14.1776 54.4671C13.9261 54.8822 14.0585 55.4227 14.4737 55.6743C19.1434 58.5042 24.5123 60 30 60C38.0133 60 45.5469 56.8794 51.2133 51.2133C56.8794 45.5469 60 38.0133 60 30C60 21.9867 56.8794 14.4531 51.2133 8.78672Z" fill="#1FA391"/>
<path d="M16.2844 26.4282C17.7321 26.4282 18.9097 25.2505 18.9097 23.8028C18.9097 22.3552 17.732 21.1775 16.2844 21.1775H10.743C9.29529 21.1775 8.11768 22.3552 8.11768 23.8028V36.9539C8.11768 38.4015 9.29541 39.5792 10.743 39.5792H16.2844C17.7321 39.5792 18.9097 38.4015 18.9097 36.9539C18.9097 35.5062 17.732 34.3285 16.2844 34.3285H13.3684V33.0037H15.8757C17.3235 33.0037 18.5011 31.826 18.5011 30.3784C18.5011 28.9307 17.3233 27.753 15.8757 27.753H13.3684V26.4282H16.2844ZM12.4895 29.5108H15.8757C16.3541 29.5108 16.7433 29.9 16.7433 30.3784C16.7433 30.8567 16.3541 31.2459 15.8757 31.2459H12.4895C12.004 31.2459 11.6106 31.6394 11.6106 32.1248V35.2074C11.6106 35.6928 12.004 36.0863 12.4895 36.0863H16.2844C16.7627 36.0863 17.1519 36.4755 17.1519 36.9539C17.1519 37.4322 16.7627 37.8214 16.2844 37.8214H10.743C10.2647 37.8214 9.87549 37.4322 9.87549 36.9539V23.8028C9.87549 23.3245 10.2647 22.9353 10.743 22.9353H16.2844C16.7627 22.9353 17.1519 23.3245 17.1519 23.8028C17.1519 24.2812 16.7627 24.6704 16.2844 24.6704H12.4895C12.004 24.6704 11.6106 25.0639 11.6106 25.5493V28.6319C11.6106 29.1173 12.0041 29.5108 12.4895 29.5108Z" fill="#1FA391"/>
<path d="M33.6333 22.7003C32.1001 21.6644 30.3089 21.1169 28.4532 21.1169C23.3464 21.1169 19.1918 25.2717 19.1918 30.3785C19.1918 35.4853 23.3464 39.64 28.4532 39.64C30.5218 39.64 32.3851 38.9544 33.8414 37.6575C36.4254 35.3185 33.0231 31.2318 30.3409 33.7437C29.849 34.1781 29.2313 34.3892 28.4532 34.3892C26.2418 34.3892 24.4425 32.59 24.4425 30.3785C24.4425 28.1669 26.2418 26.3676 28.4532 26.3676C29.2572 26.3676 30.0321 26.604 30.6937 27.0511C33.4643 28.923 36.3735 24.5515 33.6333 22.7003ZM32.9956 24.8255C32.9527 25.4324 32.2987 26.0142 31.6779 25.5946C30.7243 24.9503 29.6093 24.6098 28.4531 24.6098C25.2723 24.6098 22.6845 27.1977 22.6845 30.3785C22.6845 33.5593 25.2723 36.1471 28.4531 36.1471C29.6689 36.1471 30.7002 35.7777 31.5181 35.049C32.5577 34.1229 33.5898 35.4627 32.6615 36.3542C31.5336 37.3539 30.0787 37.8821 28.4531 37.8821C24.3156 37.8821 20.9495 34.516 20.9495 30.3785C20.9495 26.241 24.3157 22.8748 28.4531 22.8748C29.9567 22.8748 31.4076 23.3181 32.6491 24.1568C32.9021 24.3276 33.0153 24.5463 32.9956 24.8255Z" fill="#1FA391"/>
<path d="M43.1439 43.0466C43.5837 43.0793 44.0525 42.6711 44.0859 42.2366C44.0872 42.2198 44.1453 41.5364 44.4076 40.5765C46.2163 41.3918 48.4359 41.0946 49.9003 39.7248C51.0568 38.6428 51.5421 37.4079 51.9701 36.3183C52.5469 34.8504 53.0449 33.5825 55.0772 32.6139C55.6998 32.317 55.7414 31.4183 55.1487 31.0655C54.365 30.5987 53.5779 30.2345 52.7897 29.9687C52.5744 25.0514 48.508 21.1169 43.5387 21.1169C38.4319 21.1169 34.2772 25.2717 34.2772 30.3785C34.2772 35.2542 38.0652 39.2591 42.8524 39.6118C42.4234 40.9778 42.3396 42.0153 42.3328 42.1072C42.2975 42.5906 42.6606 43.0104 43.1439 43.0466ZM50.3341 35.6755C49.9392 36.6808 49.5661 37.6304 48.6995 38.4411C47.7261 39.3519 46.1768 39.5052 45.0021 38.9148C45.4998 37.809 46.26 36.6332 47.4193 35.7392C47.8037 35.4429 47.8751 34.8909 47.5786 34.5066C47.2822 34.1221 46.7303 34.0508 46.3458 34.3472C45.1416 35.2757 44.2963 36.4254 43.7034 37.553C42.4922 34.6032 45.7296 31.8057 48.3269 31.3254C49.8565 31.0424 51.4653 31.2842 52.8915 31.8852C51.3708 33.0367 50.8265 34.4222 50.3341 35.6755ZM36.035 30.3784C36.035 26.2408 39.4012 22.8746 43.5387 22.8746C47.392 22.8746 50.5748 25.7947 50.994 29.5382C50.4077 29.4546 49.822 29.4267 49.2375 29.4552C48.8245 26.8371 46.3737 24.6116 43.8069 24.6116C42.6388 24.6116 42.5359 26.3694 43.8064 26.3694C45.4866 26.3694 47.2083 27.9588 47.4981 29.7105C45.2091 30.294 43.0699 31.9229 42.1682 34.1457C40.7192 33.6087 39.6503 32.2335 39.538 30.6671C39.5016 30.159 39.564 29.6361 39.7184 29.1551C40.0656 28.0731 38.392 27.536 38.0446 28.618C37.8191 29.3207 37.7317 30.0524 37.7848 30.7928C37.9509 33.1121 39.5756 35.1405 41.7534 35.8619C41.7026 36.4652 41.7451 37.1132 41.9033 37.7004C38.55 36.9519 36.035 33.9542 36.035 30.3784Z" fill="#1FA391"/>
</svg>
