<svg width="60" height="60" viewBox="0 0 60 60" fill="none" xmlns="http://www.w3.org/2000/svg">
<path d="M57.6376 18.3313C55.3559 12.947 51.5512 8.36883 46.7643 5.13164C41.9786 1.89445 36.1984 -0.000820046 30 2.66176e-07C25.8687 -0.000234109 21.9204 0.841407 18.3315 2.36227C12.9473 4.64414 8.36906 8.4484 5.13176 13.2355C1.89457 18.0211 -0.000820046 23.8013 2.6616e-07 30C-0.000234109 34.1314 0.841524 38.0798 2.36238 41.6687C4.64414 47.053 8.44875 51.6312 13.2357 54.8684C18.0214 58.1055 23.8016 60.0008 30 60C34.1312 60.0002 38.0796 59.1586 41.6685 57.6377C47.0527 55.356 51.6309 51.5516 54.8682 46.7645C58.1055 41.9789 60.0008 36.1985 60 30C60.0002 25.8686 59.1585 21.9202 57.6376 18.3313ZM53.9546 40.1085C51.9799 44.7703 48.6759 48.7479 44.5239 51.5549C40.3704 54.3619 35.3809 55.9993 30.0001 56.0002C26.412 55.9999 23.0006 55.2715 19.8921 53.9548C15.2303 51.98 11.2526 48.6762 8.44559 44.5241C5.63836 40.3705 4.00078 35.3809 3.99996 30C4.0002 26.4117 4.72875 23.0003 6.04535 19.8918C8.02008 15.2299 11.3241 11.2522 15.4761 8.44535C19.6296 5.63824 24.6192 4.00078 30 3.99996C33.5882 4.0002 36.9995 4.72863 40.108 6.04535C44.7698 8.01996 48.7475 11.3239 51.5545 15.476C54.3615 19.6295 55.9991 24.619 55.9999 30.0001C55.9997 33.5884 55.2712 36.9998 53.9546 40.1085Z" fill="#1FA391"/>
<path d="M50.7551 26.1927C50.0099 24.435 48.7714 22.9452 47.2113 21.89C46.4312 21.3624 45.5694 20.9435 44.6491 20.6567C43.729 20.3698 42.75 20.2155 41.7415 20.2156C40.2928 20.2143 38.9247 20.5218 37.6762 21.034C36.5819 21.482 35.5746 22.0817 34.6327 22.7682C32.9852 23.9714 31.5272 25.4392 30.1349 26.9406C30.0896 26.9895 30.0453 27.0387 30.0002 27.0878C29.9905 27.0771 29.9808 27.0664 29.971 27.0557C29.1904 26.2097 28.3883 25.3739 27.5456 24.587C26.2811 23.4081 24.9249 22.3332 23.3907 21.5309C22.6241 21.1306 21.8123 20.8008 20.9543 20.5717C20.0967 20.3425 19.1933 20.2155 18.2581 20.2157C16.9133 20.2155 15.6219 20.4903 14.4506 20.9869C12.6929 21.7321 11.2031 22.9705 10.1478 24.5307C9.62025 25.3108 9.20142 26.1726 8.91454 27.0928C8.62767 28.013 8.47333 28.992 8.47345 30.0005C8.47322 31.3453 8.74802 32.6367 9.24466 33.808C9.98986 35.5655 11.2284 37.0553 12.7884 38.1106C13.5685 38.6382 14.4303 39.057 15.3506 39.3439C16.2708 39.6307 17.2497 39.7851 18.2583 39.785C19.7069 39.7861 21.075 39.4787 22.3235 38.9665C23.4178 38.5185 24.4251 37.9189 25.367 37.2324C27.0145 36.0291 28.4726 34.5613 29.8649 33.0599C29.9101 33.011 29.9544 32.9618 29.9995 32.9128C30.0092 32.9235 30.019 32.9343 30.0287 32.945C30.8093 33.7909 31.6114 34.6267 32.4541 35.4136C33.7186 36.5925 35.0748 37.6675 36.609 38.4698C37.3756 38.8698 38.1874 39.1998 39.0454 39.4289C39.903 39.6582 40.8064 39.7852 41.7416 39.785C43.0864 39.7852 44.3778 39.5103 45.5491 39.0137C47.3068 38.2685 48.7966 37.0301 49.8519 35.47C50.3795 34.6899 50.7983 33.8281 51.0852 32.9078C51.372 31.9877 51.5264 31.0087 51.5263 30.0003C51.5265 28.6554 51.2517 27.364 50.7551 26.1927ZM27.0947 30.2911C26.3499 31.0984 25.6117 31.8653 24.875 32.5527C23.7704 33.5855 22.6699 34.4329 21.5801 35.0001C21.0347 35.2846 20.4926 35.5013 19.9448 35.6475C19.3966 35.7937 18.8426 35.8708 18.2584 35.871C17.445 35.8708 16.6788 35.7066 15.9777 35.41C14.9267 34.9653 14.0247 34.2167 13.3903 33.2778C13.0729 32.8084 12.8225 32.2927 12.6513 31.7433C12.4801 31.1937 12.3875 30.6106 12.3875 30.0004C12.3877 29.187 12.5519 28.4208 12.8485 27.7198C13.2933 26.669 14.0418 25.7669 14.9809 25.1324C15.4501 24.8151 15.966 24.5646 16.5156 24.3934C17.0652 24.2222 17.6483 24.1296 18.2585 24.1296C19.1618 24.1308 19.9976 24.3127 20.8418 24.6566C21.5785 24.9577 22.3174 25.3881 23.0614 25.9308C24.3641 26.8784 25.6718 28.1707 26.9934 29.6001C27.1152 29.7316 27.2377 29.867 27.3599 30.0006C27.2716 30.0969 27.1829 30.1956 27.0947 30.2911ZM47.1515 32.2811C46.7068 33.332 45.9582 34.234 45.0192 34.8685C44.55 35.1858 44.0341 35.4362 43.4845 35.6075C42.9349 35.7787 42.3518 35.8712 41.7416 35.8712C40.8383 35.8701 40.0025 35.6882 39.1583 35.3442C38.4215 35.0432 37.6827 34.6128 36.9386 34.0701C35.636 33.1225 34.3283 31.8302 33.0067 30.4008C32.8849 30.2693 32.7623 30.1337 32.6402 30.0003C32.7286 29.9036 32.8173 29.8049 32.9054 29.7095C33.6501 28.9022 34.3884 28.1353 35.1251 27.4479C36.2297 26.4151 37.3302 25.5678 38.42 25.0006C38.9654 24.716 39.5075 24.4994 40.0552 24.3531C40.6035 24.207 41.1575 24.1299 41.7417 24.1296C42.5551 24.1299 43.3213 24.2941 44.0224 24.5907C45.0733 25.0354 45.9753 25.784 46.6098 26.723C46.9271 27.1923 47.1776 27.7081 47.3488 28.2575C47.52 28.8071 47.6126 29.3902 47.6126 30.0004C47.6124 30.8137 47.4483 31.5798 47.1515 32.2811Z" fill="#1FA391"/>
</svg>
