<svg width="60" height="60" viewBox="0 0 60 60" fill="none" xmlns="http://www.w3.org/2000/svg">
<path d="M30 60C21.9867 60 14.453 56.8795 8.78672 51.2133C3.12047 45.547 0 38.0133 0 30C0 21.9867 3.12059 14.4531 8.78672 8.78672C14.4529 3.12035 21.9867 0 30 0C38.0133 0 45.547 3.12047 51.2133 8.78672C56.8795 14.453 60 21.9867 60 30C60 38.0133 56.8794 45.5469 51.2133 51.2133C45.5471 56.8796 38.0133 60 30 60V60ZM30 3.75C15.5257 3.75 3.75 15.5257 3.75 30C3.75 44.4743 15.5257 56.25 30 56.25C44.4743 56.25 56.25 44.4743 56.25 30C56.25 15.5257 44.4743 3.75 30 3.75Z" fill="#1FA391"/>
<path d="M30 28.125C27.4153 28.125 25.3125 26.0222 25.3125 23.4375C25.3125 20.8528 27.4153 18.75 30 18.75C32.5847 18.75 34.6875 20.8528 34.6875 23.4375C34.6875 24.473 35.5269 25.3125 36.5625 25.3125C37.5981 25.3125 38.4375 24.473 38.4375 23.4375C38.4375 19.4296 35.6276 16.0678 31.875 15.2126V13.125C31.875 12.0895 31.0356 11.25 30 11.25C28.9644 11.25 28.125 12.0895 28.125 13.125V15.2126C24.3724 16.0678 21.5625 19.4296 21.5625 23.4375C21.5625 28.09 25.3475 31.875 30 31.875C32.5847 31.875 34.6875 33.9778 34.6875 36.5625C34.6875 39.1472 32.5847 41.25 30 41.25C27.4153 41.25 25.3125 39.1472 25.3125 36.5625C25.3125 35.527 24.4731 34.6875 23.4375 34.6875C22.4019 34.6875 21.5625 35.527 21.5625 36.5625C21.5625 40.5704 24.3724 43.9322 28.125 44.7874V46.875C28.125 47.9105 28.9644 48.75 30 48.75C31.0356 48.75 31.875 47.9105 31.875 46.875V44.7874C35.6276 43.9322 38.4375 40.5704 38.4375 36.5625C38.4375 31.91 34.6525 28.125 30 28.125Z" fill="#1FA391"/>
</svg>
