<svg width="60" height="60" viewBox="0 0 60 60" fill="none" xmlns="http://www.w3.org/2000/svg">
<path d="M51.2133 8.78672C45.5469 3.12059 38.0133 0 30 0C21.9867 0 14.4531 3.12059 8.78672 8.78672C3.12059 14.4531 0 21.9867 0 30C0 38.0133 3.12059 45.5469 8.78672 51.2133C14.4531 56.8794 21.9867 60 30 60C38.0133 60 45.5469 56.8794 51.2133 51.2133C56.8794 45.5469 60 38.0133 60 30C60 21.9867 56.8794 14.4531 51.2133 8.78672ZM11.2727 48.7273C6.27047 43.725 3.51562 37.0743 3.51562 30C3.51562 23.515 5.83219 17.3869 10.0713 12.5572L19.2895 21.7754C16.3166 24.3448 14.4322 28.1414 14.4322 32.3699V32.8722C11.6217 33.506 9.51562 36.021 9.51562 39.0203C9.51562 42.4963 12.3436 45.3241 15.8195 45.3241H27.103V41.8085H15.8195C14.282 41.8085 13.0312 40.5577 13.0312 39.0203C13.0312 37.4829 14.2821 36.232 15.8195 36.232H16.1902H33.7463L47.4428 49.9286C42.6132 54.1678 36.485 56.4844 30 56.4844C22.9257 56.4844 16.275 53.7295 11.2727 48.7273ZM37.8265 28.372V26.5832C37.8265 23.9911 39.1816 22.237 41.2086 22.1861V28.6269L42.3005 29.0739C44.8506 30.1177 45.917 31.5923 46.3598 32.7164H35.2023L24.9618 22.4759C26.0489 22.0932 27.2171 21.8844 28.4334 21.8844C30.6752 21.8844 32.8502 22.6223 34.6568 23.9787C34.4324 24.7847 34.3109 25.6577 34.3109 26.5832V28.372H37.8265ZM30.2305 32.7164H17.948V32.3699C17.948 29.1104 19.443 26.1937 21.7833 24.2691L30.2305 32.7164ZM49.9287 47.4428L38.7179 36.2321H50.0456L50.1705 34.6092C50.2073 34.1296 50.2431 32.4113 49.1524 30.4356C48.2033 28.7168 46.7167 27.336 44.7244 26.32V18.6694H41.2998C39.3006 18.6694 37.573 19.4816 36.335 20.8548C34.0099 19.2418 31.2636 18.3689 28.4334 18.3689C26.2273 18.3689 24.1392 18.8825 22.2811 19.7953L12.5572 10.0714C17.3869 5.83219 23.515 3.51562 30 3.51562C37.0743 3.51562 43.725 6.27047 48.7273 11.2727C53.7295 16.275 56.4844 22.9257 56.4844 30C56.4844 36.485 54.1678 42.6131 49.9287 47.4428Z" fill="#1FA391"/>
</svg>
