<svg width="60" height="60" viewBox="0 0 60 60" fill="none" xmlns="http://www.w3.org/2000/svg">
<path d="M30 58.3784C24.3873 58.3784 18.9006 56.714 14.2338 53.5957C9.56699 50.4775 5.92966 46.0454 3.78177 40.8599C1.63388 35.6744 1.07189 29.9685 2.16688 24.4636C3.26186 18.9588 5.96464 13.9022 9.93343 9.93343C13.9022 5.96464 18.9588 3.26186 24.4636 2.16688C29.9685 1.07189 35.6744 1.63388 40.8599 3.78177C46.0454 5.92966 50.4775 9.56699 53.5957 14.2338C56.714 18.9006 58.3784 24.3873 58.3784 30C58.3698 37.5238 55.3772 44.7369 50.057 50.057C44.7369 55.3772 37.5238 58.3698 30 58.3784ZM30 3.24322C24.708 3.24322 19.5348 4.81247 15.1347 7.75254C10.7346 10.6926 7.30511 14.8714 5.27995 19.7606C3.2548 24.6498 2.72492 30.0297 3.75734 35.22C4.78976 40.4103 7.33809 45.1779 11.0801 48.9199C14.8221 52.6619 19.5897 55.2102 24.78 56.2426C29.9703 57.275 35.3502 56.7452 40.2393 54.72C45.1285 52.6948 49.3073 49.2654 52.2474 44.8652C55.1875 40.4651 56.7567 35.292 56.7567 30C56.7488 22.9061 53.9272 16.105 48.9111 11.0889C43.8949 6.07271 37.0939 3.25116 30 3.24322Z" fill="#1FA391"/>
<path d="M30 53.5134C25.3494 53.5134 20.8033 52.1343 16.9366 49.5506C13.0698 46.9669 10.056 43.2946 8.27632 38.9981C6.49664 34.7016 6.03099 29.9738 6.93827 25.4126C7.84554 20.8514 10.085 16.6617 13.3734 13.3733C16.6618 10.0849 20.8515 7.84542 25.4127 6.93814C29.9739 6.03087 34.7017 6.49652 38.9982 8.2762C43.2947 10.0559 46.967 13.0697 49.5507 16.9364C52.1344 20.8032 53.5135 25.3493 53.5135 29.9999C53.5064 36.2339 51.0268 42.2105 46.6187 46.6186C42.2106 51.0267 36.234 53.5063 30 53.5134ZM30 8.10796C25.6702 8.10796 21.4376 9.3919 17.8375 11.7974C14.2374 14.2029 11.4314 17.622 9.7745 21.6222C8.11756 25.6224 7.68403 30.0241 8.52873 34.2707C9.37343 38.5174 11.4584 42.4181 14.5201 45.4798C17.5817 48.5414 21.4825 50.6264 25.7291 51.4711C29.9757 52.3158 34.3774 51.8823 38.3776 50.2253C42.3779 48.5684 45.7969 45.7624 48.2024 42.1623C50.6079 38.5622 51.8919 34.3297 51.8919 29.9999C51.8852 24.1958 49.5766 18.6314 45.4725 14.5273C41.3684 10.4232 35.804 8.11461 30 8.10796Z" fill="#1FA391"/>
<path d="M30 14.0117C29.785 14.0117 29.5787 13.9262 29.4267 13.7742C29.2746 13.6221 29.1892 13.4159 29.1892 13.2009V11.8079C29.1892 11.5928 29.2746 11.3866 29.4267 11.2346C29.5787 11.0825 29.785 10.9971 30 10.9971C30.2151 10.9971 30.4213 11.0825 30.5734 11.2346C30.7254 11.3866 30.8108 11.5928 30.8108 11.8079V13.2017C30.8106 13.4166 30.7251 13.6226 30.5731 13.7745C30.421 13.9264 30.2149 14.0117 30 14.0117Z" fill="#1FA391"/>
<path d="M30 49.0039C29.785 49.0039 29.5787 48.9185 29.4267 48.7664C29.2746 48.6144 29.1892 48.4082 29.1892 48.1931V46.7993C29.1892 46.5843 29.2746 46.3781 29.4267 46.226C29.5787 46.0739 29.785 45.9885 30 45.9885C30.2151 45.9885 30.4213 46.0739 30.5734 46.226C30.7254 46.3781 30.8108 46.5843 30.8108 46.7993V48.1931C30.8108 48.4082 30.7254 48.6144 30.5734 48.7664C30.4213 48.9185 30.2151 49.0039 30 49.0039Z" fill="#1FA391"/>
<path d="M41.8784 18.9325C41.7181 18.9325 41.5613 18.8849 41.428 18.7958C41.2947 18.7067 41.1908 18.5801 41.1295 18.4319C41.0681 18.2838 41.052 18.1208 41.0833 17.9635C41.1146 17.8063 41.1918 17.6618 41.3051 17.5484L42.2903 16.5633C42.4432 16.4156 42.648 16.3339 42.8606 16.3357C43.0732 16.3376 43.2766 16.4228 43.4269 16.5732C43.5772 16.7235 43.6625 16.9269 43.6643 17.1395C43.6662 17.3521 43.5845 17.5569 43.4368 17.7098L42.4516 18.6949C42.2996 18.847 42.0934 18.9324 41.8784 18.9325Z" fill="#1FA391"/>
<path d="M17.1364 43.6752C16.9761 43.6751 16.8194 43.6276 16.6861 43.5385C16.5528 43.4494 16.4489 43.3227 16.3875 43.1746C16.3262 43.0265 16.3101 42.8635 16.3414 42.7062C16.3726 42.549 16.4498 42.4045 16.5632 42.2911L17.5483 41.306C17.7013 41.1583 17.9061 41.0766 18.1187 41.0784C18.3313 41.0802 18.5346 41.1655 18.6849 41.3158C18.8353 41.4662 18.9205 41.6695 18.9224 41.8821C18.9242 42.0947 18.8425 42.2995 18.6948 42.4525L17.7097 43.4376C17.5577 43.5897 17.3515 43.6751 17.1364 43.6752Z" fill="#1FA391"/>
<path d="M48.193 30.8108H46.7992C46.5842 30.8108 46.3779 30.7254 46.2259 30.5733C46.0738 30.4213 45.9884 30.2151 45.9884 30C45.9884 29.785 46.0738 29.5787 46.2259 29.4267C46.3779 29.2746 46.5842 29.1892 46.7992 29.1892H48.193C48.408 29.1892 48.6143 29.2746 48.7663 29.4267C48.9184 29.5787 49.0038 29.785 49.0038 30C49.0038 30.2151 48.9184 30.4213 48.7663 30.5733C48.6143 30.7254 48.408 30.8108 48.193 30.8108Z" fill="#1FA391"/>
<path d="M13.2009 30.8108H11.8079C11.5928 30.8108 11.3866 30.7254 11.2346 30.5733C11.0825 30.4213 10.9971 30.2151 10.9971 30C10.9971 29.785 11.0825 29.5787 11.2346 29.4267C11.3866 29.2746 11.5928 29.1892 11.8079 29.1892H13.2017C13.4167 29.1892 13.6229 29.2746 13.775 29.4267C13.9271 29.5787 14.0125 29.785 14.0125 30C14.0125 30.2151 13.9271 30.4213 13.775 30.5733C13.6229 30.7254 13.4167 30.8108 13.2017 30.8108H13.2009Z" fill="#1FA391"/>
<path d="M42.8635 43.6752C42.6485 43.6751 42.4423 43.5897 42.2903 43.4376L41.3051 42.4525C41.1574 42.2995 41.0757 42.0947 41.0775 41.8821C41.0794 41.6695 41.1647 41.4662 41.315 41.3158C41.4653 41.1655 41.6687 41.0802 41.8813 41.0784C42.0939 41.0766 42.2987 41.1583 42.4516 41.306L43.4367 42.2911C43.5501 42.4045 43.6273 42.549 43.6586 42.7062C43.6898 42.8635 43.6738 43.0265 43.6124 43.1746C43.5511 43.3227 43.4472 43.4494 43.3139 43.5385C43.1806 43.6276 43.0238 43.6751 42.8635 43.6752Z" fill="#1FA391"/>
<path d="M18.1216 18.9325C17.9065 18.9324 17.7003 18.847 17.5483 18.6949L16.5632 17.7098C16.4155 17.5569 16.3338 17.3521 16.3356 17.1395C16.3374 16.9269 16.4227 16.7235 16.5731 16.5732C16.7234 16.4228 16.9267 16.3376 17.1393 16.3357C17.3519 16.3339 17.5567 16.4156 17.7097 16.5633L18.6948 17.5484C18.8082 17.6618 18.8854 17.8063 18.9166 17.9635C18.9479 18.1208 18.9318 18.2838 18.8705 18.4319C18.8091 18.5801 18.7052 18.7067 18.5719 18.7958C18.4386 18.8849 18.2819 18.9325 18.1216 18.9325Z" fill="#1FA391"/>
<path d="M25.4902 35.3212C25.3299 35.3211 25.1731 35.2736 25.0398 35.1845C24.9065 35.0954 24.8026 34.9688 24.7413 34.8206C24.6799 34.6725 24.6639 34.5095 24.6951 34.3522C24.7264 34.195 24.8036 34.0505 24.917 33.9371L29.1891 29.6642V17.8377C29.1891 17.6226 29.2745 17.4164 29.4266 17.2643C29.5787 17.1123 29.7849 17.0269 29.9999 17.0269C30.215 17.0269 30.4212 17.1123 30.5733 17.2643C30.7253 17.4164 30.8107 17.6226 30.8107 17.8377V29.9998C30.8107 30.2149 30.7252 30.4211 30.5732 30.5731L26.0634 35.0836C25.9114 35.2357 25.7052 35.3211 25.4902 35.3212Z" fill="#1FA391"/>
</svg>
