<svg width="79" height="72" viewBox="0 0 79 72" fill="none" xmlns="http://www.w3.org/2000/svg">
<path d="M61.993 19.2856H17.0071C16.3674 19.2856 15.8489 19.7582 15.8489 20.3411C15.8489 20.9242 16.3674 21.3967 17.0071 21.3967H61.993C62.6327 21.3967 63.1511 20.9242 63.1511 20.3411C63.1511 19.7582 62.6327 19.2856 61.993 19.2856Z" fill="#1FA391"/>
<path d="M61.993 30.7783H17.0071C16.3674 30.7783 15.8489 31.2508 15.8489 31.8339C15.8489 32.4167 16.3674 32.8894 17.0071 32.8894H61.993C62.6327 32.8894 63.1511 32.4169 63.1511 31.8339C63.1511 31.2508 62.6327 30.7783 61.993 30.7783Z" fill="#1FA391"/>
<path d="M47.2446 38.2373H31.7554C31.1156 38.2373 30.5972 38.7098 30.5972 39.2928C30.5972 39.8757 31.1156 40.3484 31.7554 40.3484H47.2446C47.8843 40.3484 48.4027 39.8759 48.4027 39.2928C48.4027 38.7098 47.8843 38.2373 47.2446 38.2373Z" fill="#1FA391"/>
<path d="M61.9929 25.0083H28.4374C27.7977 25.0083 27.2792 25.4808 27.2792 26.0639C27.2792 26.6467 27.7977 27.1194 28.4374 27.1194H61.9929C62.6327 27.1194 63.1511 26.647 63.1511 26.0639C63.1511 25.4808 62.6327 25.0083 61.9929 25.0083Z" fill="#1FA391"/>
<path d="M23.0491 25.0083H17.0071C16.3674 25.0083 15.8489 25.4808 15.8489 26.0639C15.8489 26.6468 16.3674 27.1194 17.0071 27.1194H23.0491C23.6888 27.1194 24.2072 26.6468 24.2072 26.0639C24.2072 25.4809 23.6888 25.0083 23.0491 25.0083Z" fill="#1FA391"/>
<path d="M73.0212 17.5015C72.7518 17.2604 72.3952 17.1276 72.0148 17.1276C72.0145 17.1276 72.0144 17.1276 72.0141 17.1276C69.6668 17.1276 67.7456 15.4552 67.6399 13.3198C67.6052 12.6254 66.9791 12.0815 66.2145 12.0815H12.5099C11.7452 12.0815 11.119 12.6255 11.0844 13.3205C10.9836 15.361 9.15073 17.0317 6.91157 17.1236C6.14935 17.1547 5.55237 17.7256 5.55237 18.4227V45.7069C5.55237 46.4041 6.14935 46.9749 6.91157 47.006C9.15073 47.098 10.9836 48.7685 11.0844 50.8098C11.1191 51.5042 11.7454 52.0481 12.5099 52.0481H46.6986C47.3383 52.0481 47.8567 51.5756 47.8567 50.9925C47.8567 50.4096 47.3383 49.937 46.6986 49.937H13.3064C12.8276 47.3946 10.6581 45.4172 7.86852 44.9807V19.1485C10.6581 18.7122 12.8276 16.7344 13.3064 14.1924H65.4185C65.9169 16.8152 68.2336 18.8396 71.1315 19.1861V37.1114C71.1315 37.6943 71.6499 38.167 72.2896 38.167C72.9294 38.167 73.4478 37.6944 73.4478 37.1114V18.4287C73.4478 18.0773 73.2963 17.7479 73.0212 17.5015Z" fill="#1FA391"/>
<path d="M75.7852 6.8125H3.21478C1.44221 6.8125 0 8.12693 0 9.74242V54.3867C0 56.0023 1.44221 57.3166 3.21478 57.3166H51.8257L50.1047 60.6034C49.8836 61.0254 49.9374 61.5203 50.2448 61.8945C50.5523 62.2691 51.0582 62.4552 51.5645 62.3813L54.7686 61.9119L56.5558 64.5856C56.8064 64.9608 57.2517 65.1871 57.7302 65.1871C57.7535 65.1871 57.7769 65.1867 57.8004 65.1856C58.3052 65.1621 58.7541 64.8894 58.9721 64.4734L62.0775 58.5428L65.1826 64.473C65.4001 64.8889 65.849 65.162 66.354 65.1857C66.3776 65.1868 66.4014 65.1874 66.4248 65.1874C66.9033 65.1874 67.3486 64.9609 67.5992 64.5859L69.3864 61.9122L72.5905 62.3817C73.0983 62.4557 73.6033 62.2691 73.9105 61.8944C74.2179 61.5198 74.2713 61.0251 74.0502 60.6038L72.3291 57.3169H75.7852C77.5578 57.3169 79 56.0027 79 54.387V9.74242C79 8.12693 77.5578 6.8125 75.7852 6.8125ZM57.63 62.1351L56.4177 60.3217C56.1258 59.8849 55.5793 59.6551 55.0247 59.7363L52.9673 60.0378L55.1346 55.8989C55.9888 56.6933 57.2057 57.1225 58.4689 57.014C58.9008 56.9763 59.3338 57.0824 59.6876 57.3114C59.8042 57.3871 59.9254 57.4542 60.048 57.5176L57.63 62.1351ZM62.3537 55.8761C62.3501 55.8766 62.3466 55.8768 62.3429 55.8774C62.1673 55.901 61.9888 55.901 61.8132 55.8775C61.8087 55.8769 61.8042 55.8766 61.7999 55.876C61.5279 55.8376 61.2634 55.7427 61.0292 55.5909C60.3287 55.137 59.4922 54.8957 58.639 54.8957C58.5097 54.8957 58.3801 54.9013 58.2505 54.9124C57.4838 54.9784 56.7553 54.5946 56.4353 53.9573C56.2932 53.6743 56.1119 53.4126 55.9015 53.173C55.8922 53.1611 55.882 53.1498 55.8723 53.1382C55.8606 53.1253 55.8496 53.112 55.8379 53.0992C55.8245 53.0849 55.8104 53.0712 55.7961 53.0576C55.4131 52.656 54.9399 52.3281 54.4009 52.1033C53.7015 51.8116 53.2804 51.1468 53.3529 50.4489C53.4461 49.5508 53.1818 48.6514 52.6084 47.9163C52.1627 47.3449 52.1627 46.5773 52.6083 46.006C53.1818 45.2708 53.4461 44.3715 53.3529 43.4734C53.2804 42.7755 53.7016 42.1107 54.4009 41.819C55.3009 41.4436 56.0233 40.7852 56.4352 39.9649C56.7553 39.3275 57.4864 38.9436 58.2505 39.0099C59.2369 39.0946 60.2228 38.8538 61.0294 38.3311C61.6564 37.925 62.4987 37.925 63.1255 38.3311C63.9321 38.8538 64.9183 39.0941 65.9044 39.0099C66.6708 38.9435 67.3998 39.3277 67.7198 39.9649C68.1316 40.7852 68.854 41.4436 69.7539 41.8189C70.4533 42.1107 70.8746 42.7755 70.802 43.4733C70.7089 44.3715 70.9732 45.2708 71.5465 46.0059C71.9923 46.5772 71.9923 47.3448 71.5465 47.9162C70.9732 48.6514 70.7089 49.5508 70.802 50.4487C70.8746 51.1467 70.4533 51.8115 69.7538 52.1033C69.216 52.3276 68.7439 52.6547 68.3614 53.055C68.3456 53.0699 68.3302 53.085 68.3157 53.1007C68.3057 53.1116 68.2963 53.123 68.2862 53.1341C68.2747 53.1475 68.2629 53.1608 68.2521 53.1747C68.0423 53.4138 67.8615 53.6751 67.7198 53.9573C67.3997 54.5946 66.6701 54.9786 65.9044 54.9124C64.92 54.8279 63.9324 55.0683 63.1255 55.5909C62.8909 55.7428 62.6262 55.8379 62.3537 55.8761ZM69.1301 59.7361C68.5754 59.6553 68.0292 59.8849 67.7371 60.3219L66.5249 62.1352L64.107 57.5176C64.2296 57.4542 64.3506 57.3871 64.4674 57.3114C64.8214 57.0823 65.2546 56.976 65.686 57.0139C66.9497 57.1225 68.1664 56.6933 69.0205 55.8989L71.1876 60.0377L69.1301 59.7361ZM76.6839 54.3868C76.6839 54.8383 76.2808 55.2057 75.7852 55.2057H71.2237L70.6266 54.0653C70.6567 54.0508 70.6866 54.0357 70.7178 54.0227C72.3126 53.3574 73.2731 51.8411 73.1079 50.2498C73.067 49.8561 73.1829 49.4616 73.4344 49.1392C74.4506 47.8364 74.4506 46.0855 73.4342 44.7826C73.1829 44.4603 73.067 44.066 73.1079 43.6721C73.2731 42.0809 72.3126 40.5646 70.7177 39.8993C70.3231 39.7347 70.0063 39.4459 69.8257 39.0864C69.0958 37.6327 67.4314 36.7576 65.6859 36.9081C65.2535 36.9456 64.821 36.8398 64.4674 36.6105C63.0378 35.6843 61.1167 35.6842 59.6873 36.6105C59.3335 36.8398 58.8997 36.9456 58.4688 36.908C56.7206 36.758 55.0588 37.6327 54.3292 39.0862C54.1485 39.4459 53.8317 39.7345 53.437 39.8992C51.8422 40.5645 50.8817 42.0805 51.047 43.672C51.0878 44.0659 50.972 44.4602 50.7205 44.7826C49.7043 46.0855 49.7043 47.8364 50.7205 49.1391C50.972 49.4614 51.0878 49.8558 51.047 50.2497C50.8817 51.8411 51.8422 53.3574 53.437 54.0225C53.4682 54.0354 53.498 54.0507 53.5281 54.0652L52.9309 55.2057H3.21478C2.71933 55.2057 2.31615 54.8384 2.31615 54.3868V9.74242C2.31615 9.29087 2.71917 8.92342 3.21478 8.92342H75.7852C76.2807 8.92342 76.6839 9.29087 76.6839 9.74242V54.3868Z" fill="#1FA391"/>
<path d="M61.9929 40.4033C58.0253 40.4033 54.7975 43.3452 54.7975 46.9611C54.7975 50.5772 58.0253 53.519 61.9929 53.519C65.9605 53.519 69.1883 50.577 69.1883 46.9611C69.1883 43.3451 65.9605 40.4033 61.9929 40.4033ZM61.9929 51.408C59.3025 51.408 57.1136 49.4131 57.1136 46.9609C57.1136 44.509 59.3025 42.5141 61.9929 42.5141C64.6833 42.5141 66.8721 44.509 66.8721 46.9609C66.8721 49.4131 64.6833 51.408 61.9929 51.408Z" fill="#1FA391"/>
</svg>
