<svg width="79" height="59" viewBox="0 0 79 59" fill="none" xmlns="http://www.w3.org/2000/svg">
<path d="M40.5313 32.1995C40.3851 32.1759 40.2351 32.1717 40.0871 32.1882C38.6033 32.0592 37.484 31.1217 37.4815 30.0065C37.4815 29.472 36.9013 29.0387 36.1857 29.0387C35.4701 29.0387 34.8899 29.472 34.8899 30.0065C34.8936 31.8688 36.5615 33.5 38.9659 33.9928V34.9606C38.9659 35.4951 39.5461 35.9284 40.2617 35.9284C40.9773 35.9284 41.5575 35.4951 41.5575 34.9606V34.0514C44.3327 33.6176 46.2189 31.6873 45.9272 29.5812C45.6348 27.475 43.259 25.8745 40.4237 25.8741C38.7988 25.8741 37.4815 24.8902 37.4815 23.6767C37.4815 22.4632 38.7988 21.4794 40.4237 21.4794C42.0485 21.4794 43.3659 22.4632 43.3659 23.6767C43.3659 24.2112 43.9461 24.6445 44.6617 24.6445C45.3773 24.6445 45.9575 24.2112 45.9575 23.6767C45.9537 21.7213 44.1195 20.0348 41.5575 19.6313V18.7504C41.5575 18.216 40.9773 17.7827 40.2617 17.7827C39.5461 17.7827 38.9659 18.216 38.9659 18.7504V19.6903C36.292 20.2357 34.571 22.1745 34.9392 24.2263C35.3075 26.2781 37.6517 27.8096 40.4237 27.8091C42.027 27.8091 43.3349 28.7679 43.364 29.9649C43.3937 31.1618 42.1333 32.1561 40.5313 32.1995Z" fill="#1FA391"/>
<path d="M21.6331 26.9159C21.6331 34.6666 30.0459 40.9495 40.4239 40.9495C50.8019 40.9495 59.2147 34.6666 59.2147 26.9159C59.2147 19.1653 50.8019 12.8823 40.4239 12.8823C30.0509 12.8908 21.6451 19.169 21.6331 26.9159ZM40.4239 14.8178C49.3707 14.8178 56.623 20.2341 56.623 26.9159C56.623 33.5977 49.3707 39.014 40.4239 39.014C31.4771 39.014 24.2248 33.5977 24.2248 26.9159C24.2349 20.2375 31.4815 14.8254 40.4239 14.8178Z" fill="#1FA391"/>
<path d="M65.6026 43.3354L55.4517 46.9173C54.0502 44.9704 51.3618 43.7314 48.4031 43.669L39.0324 43.4767C37.5487 43.445 36.0928 43.1643 34.7735 42.6554L33.82 42.2863C28.9379 40.3858 23.1187 40.3905 18.2416 42.2986L18.3011 40.6854C18.3207 40.1509 17.7569 39.7058 17.0413 39.6911L6.7658 39.4799C6.05018 39.4653 5.45478 39.8863 5.43517 40.4207L4.81446 57.2613C4.79485 57.7957 5.35861 58.2409 6.07422 58.2555L16.3497 58.4667H16.3852C17.0875 58.4667 17.662 58.0495 17.681 57.5254L17.7107 56.7197L20.3802 55.6523C21.428 55.2312 22.653 55.131 23.7976 55.373L39.7385 58.7143C39.7664 58.7205 39.7942 58.7252 39.8227 58.7299C40.9749 58.91 42.1492 59.0002 43.3261 58.9998C45.8191 59.0007 48.2829 58.5995 50.5487 57.8227C50.6044 57.8038 50.6582 57.7815 50.7094 57.7565L73.8224 46.5912C74.3981 46.3129 74.5842 45.7482 74.2469 45.3021C72.531 43.0282 68.7251 42.1621 65.6026 43.3354ZM7.44092 56.3474L7.99013 41.4414L15.6746 41.5993L15.1254 56.5057L7.44092 56.3474ZM49.3813 56.0941C46.5663 57.043 43.4223 57.3047 40.3966 56.8431L24.4986 53.5102C22.7093 53.1327 20.794 53.2891 19.1572 53.9464L17.793 54.4922L18.1581 44.5815C22.4809 42.4343 28.0248 42.2136 32.6286 44.005L33.5821 44.374C35.2487 45.0167 37.0868 45.3711 38.9616 45.4118L48.3329 45.6041C50.965 45.6608 53.2005 47.0605 53.7345 48.9866L39.7759 48.6988C39.0603 48.6841 38.4649 49.1056 38.4446 49.6396C38.425 50.1741 38.9894 50.6192 39.7044 50.6338L55.1088 50.9504H55.1448C55.8465 50.95 56.4204 50.5327 56.4394 50.0091C56.4552 49.5886 56.4135 49.1675 56.3141 48.7536L66.7257 45.0796C66.7358 45.0762 66.7459 45.0725 66.756 45.0687C68.2328 44.5106 70.0184 44.6973 71.2332 45.537L49.3813 56.0941Z" fill="#1FA391"/>
<path d="M41.7196 10.1616V0.96777C41.7196 0.433323 41.1394 0 40.4238 0C39.7081 0 39.1279 0.433323 39.1279 0.96777V10.1616C39.1279 10.696 39.7081 11.1294 40.4238 11.1294C41.1394 11.1294 41.7196 10.696 41.7196 10.1616Z" fill="#1FA391"/>
<path d="M51.4383 10.1616V5.80664C51.4383 5.27219 50.8581 4.83887 50.1425 4.83887C49.4269 4.83887 48.8467 5.27219 48.8467 5.80664V10.1616C48.8467 10.696 49.4269 11.1293 50.1425 11.1293C50.8581 11.1293 51.4383 10.696 51.4383 10.1616Z" fill="#1FA391"/>
<path d="M32.0009 10.1616V5.80664C32.0009 5.27219 31.4207 4.83887 30.7051 4.83887C29.9895 4.83887 29.4092 5.27219 29.4092 5.80664V10.1616C29.4092 10.696 29.9895 11.1293 30.7051 11.1293C31.4207 11.1293 32.0009 10.696 32.0009 10.1616Z" fill="#1FA391"/>
</svg>
