<svg width="79" height="63" viewBox="0 0 79 63" fill="none" xmlns="http://www.w3.org/2000/svg">
<path d="M74.0625 0.984375H39.5C37.4583 0.984375 35.7969 2.30935 35.7969 3.9375V13.4682C32.7702 12.4091 29.4337 11.8125 25.9219 11.8125C12.3092 11.8125 1.23438 20.6444 1.23438 31.5C1.23438 40.8221 9.41333 48.7767 20.6128 50.7288L11.1094 58.6687V62.0156H65.4219V39.7826L72.8281 33.8763V41.3438H75.2969V30.5156H61.7188V32.4844H71.0827L53.0411 46.872L46.6359 42.1893C49.2281 39.0029 50.6094 35.3311 50.6094 31.5C50.6094 30.4939 50.4847 29.5125 50.3008 28.5469H74.0625C76.1042 28.5469 77.7656 27.2219 77.7656 25.5938V3.9375C77.7656 2.30935 76.1042 0.984375 74.0625 0.984375ZM58.0156 4.92188V6.89062H55.5469V4.92188H53.0781V6.89062H50.6094V2.95312H62.9531V6.89062H60.4844V4.92188H58.0156ZM8.70358 30.5156C8.97638 27.4561 10.4996 24.6743 12.877 22.4891L16.3209 25.2355L18.0663 23.8436L14.6224 21.0971C17.3627 19.2012 20.8523 17.9865 24.6875 17.769V21.6562H27.1562V17.769C30.9927 17.9865 34.481 19.2012 37.2213 21.0971L33.7774 23.8436L35.5228 25.2355L38.9668 22.4891C41.3442 24.6743 42.8674 27.4572 43.1402 30.5156H38.2656V32.4844H43.1587C42.9822 34.4699 42.2712 36.3865 41.0738 38.1239L38.2076 36.0291L30.8199 42.2011C30.8088 42.1096 30.81 42.017 30.7915 41.9265L28.577 31.3248C28.3585 30.2853 27.2427 29.5312 25.9219 29.5312C24.6011 29.5312 23.4852 30.2853 23.2667 31.3238L21.0523 41.9246C21.0066 42.1391 20.9844 42.3547 20.9844 42.5723V43.3125C20.9844 43.8303 21.1177 44.3224 21.346 44.7753C14.4175 43.2544 9.22942 38.3817 8.70358 32.4844H13.5781V30.5156H8.70358ZM23.4531 43.3125V42.5723C23.4531 42.465 23.4642 42.3556 23.4865 42.2484L25.7009 31.6486C25.738 31.4764 26.1046 31.4764 26.1404 31.6486L28.3548 42.2494C28.3795 42.3556 28.3906 42.465 28.3906 42.5723V43.3125C28.3906 44.3982 27.2834 45.2812 25.9219 45.2812C24.5604 45.2812 23.4531 44.3982 23.4531 43.3125ZM33.3281 42.9571V60.0469H28.3906V47.0817L33.3281 42.9571ZM35.7969 40.8949L38.3236 38.7844L40.7344 40.5464V60.0469H35.7969V40.8949ZM43.2031 42.3507L48.1406 45.9604V60.0469H43.2031V42.3507ZM25.9219 60.0469H20.9844V53.2695L25.9219 49.1449V60.0469ZM13.5781 59.4563L18.5156 55.3317V60.0469H13.5781V59.4563ZM62.9531 60.0469H58.0156V45.6888L62.9531 41.7513V60.0469ZM53.1152 49.5968L55.5469 47.6576V60.0469H50.6094V47.7648L53.1152 49.5968ZM44.793 40.8427L42.9365 39.4852C44.7226 37.0696 45.6719 34.3291 45.6719 31.5C45.6719 22.8158 36.8115 15.75 25.9219 15.75C15.0322 15.75 6.17188 22.8158 6.17188 31.5C6.17188 39.8898 14.4484 46.7499 24.8295 47.2057L22.6656 49.013C11.8167 47.7432 3.70311 40.3053 3.70311 31.5C3.70311 21.7301 13.6707 13.7812 25.9219 13.7812C38.173 13.7812 48.1406 21.7301 48.1406 31.5C48.1406 34.8371 46.9815 38.0412 44.793 40.8427ZM75.2969 25.5938C75.2969 26.1361 74.7426 26.5781 74.0625 26.5781H49.7972C48.1233 21.424 43.9067 17.0877 38.2656 14.4762V3.9375C38.2656 3.39511 38.8199 2.95312 39.5 2.95312H48.1406V8.85938H65.4219V2.95312H74.0625C74.7426 2.95312 75.2969 3.39511 75.2969 3.9375V25.5938Z" fill="#1FA391"/>
<path d="M60.4844 22.6406H62.9531V24.6094H60.4844V22.6406Z" fill="#1FA391"/>
<path d="M70.3594 22.6406H72.8281V24.6094H70.3594V22.6406Z" fill="#1FA391"/>
<path d="M65.4219 22.6406H67.8906V24.6094H65.4219V22.6406Z" fill="#1FA391"/>
<path d="M60.4844 18.7031H72.8281V20.6719H60.4844V18.7031Z" fill="#1FA391"/>
</svg>
