<svg width="163" height="193" viewBox="0 0 163 193" fill="none" xmlns="http://www.w3.org/2000/svg">
<g filter="url(#filter0_d)">
<path d="M154 182.5C154 181.837 154.264 181.201 154.732 180.732C155.201 180.263 155.837 180 156.5 180C157.163 180 157.799 180.263 158.268 180.732C158.736 181.201 159 181.837 159 182.5C159 183.163 158.736 183.799 158.268 184.268C157.799 184.737 157.163 185 156.5 185C155.837 185 155.201 184.737 154.732 184.268C154.264 183.799 154 183.163 154 182.5ZM139 182.5C139 181.837 139.264 181.201 139.732 180.732C140.201 180.263 140.837 180 141.5 180C142.163 180 142.799 180.263 143.268 180.732C143.736 181.201 144 181.837 144 182.5C144 183.163 143.736 183.799 143.268 184.268C142.799 184.737 142.163 185 141.5 185C140.837 185 140.201 184.737 139.732 184.268C139.264 183.799 139 183.163 139 182.5ZM124 182.5C124 181.837 124.264 181.201 124.732 180.732C125.201 180.263 125.837 180 126.5 180C127.163 180 127.799 180.263 128.268 180.732C128.736 181.201 129 181.837 129 182.5C129 183.163 128.736 183.799 128.268 184.268C127.799 184.737 127.163 185 126.5 185C125.837 185 125.201 184.737 124.732 184.268C124.264 183.799 124 183.163 124 182.5ZM109 182.5C109 181.837 109.264 181.201 109.732 180.732C110.201 180.263 110.837 180 111.5 180C112.163 180 112.799 180.263 113.268 180.732C113.736 181.201 114 181.837 114 182.5C114 183.163 113.736 183.799 113.268 184.268C112.799 184.737 112.163 185 111.5 185C110.837 185 110.201 184.737 109.732 184.268C109.264 183.799 109 183.163 109 182.5ZM94 182.5C94 181.837 94.2636 181.201 94.7324 180.732C95.2013 180.263 95.837 180 96.5 180C97.163 180 97.7987 180.263 98.2676 180.732C98.7364 181.201 99 181.837 99 182.5C99 183.163 98.7364 183.799 98.2676 184.268C97.7987 184.737 97.163 185 96.5 185C95.837 185 95.2013 184.737 94.7324 184.268C94.2636 183.799 94 183.163 94 182.5ZM79 182.5C79 181.837 79.2636 181.201 79.7324 180.732C80.2013 180.263 80.837 180 81.5 180C82.163 180 82.7987 180.263 83.2676 180.732C83.7364 181.201 84 181.837 84 182.5C84 183.163 83.7364 183.799 83.2676 184.268C82.7987 184.737 82.163 185 81.5 185C80.837 185 80.2013 184.737 79.7324 184.268C79.2636 183.799 79 183.163 79 182.5ZM64 182.5C64 181.837 64.2636 181.201 64.7324 180.732C65.2013 180.263 65.837 180 66.5 180C67.163 180 67.7987 180.263 68.2676 180.732C68.7364 181.201 69 181.837 69 182.5C69 183.163 68.7364 183.799 68.2676 184.268C67.7987 184.737 67.163 185 66.5 185C65.837 185 65.2013 184.737 64.7324 184.268C64.2636 183.799 64 183.163 64 182.5ZM49 182.5C49 181.837 49.2636 181.201 49.7324 180.732C50.2013 180.263 50.837 180 51.5 180C52.163 180 52.7987 180.263 53.2676 180.732C53.7364 181.201 54 181.837 54 182.5C54 183.163 53.7364 183.799 53.2676 184.268C52.7987 184.737 52.163 185 51.5 185C50.837 185 50.2013 184.737 49.7324 184.268C49.2636 183.799 49 183.163 49 182.5ZM34 182.5C34 181.837 34.2636 181.201 34.7324 180.732C35.2013 180.263 35.837 180 36.5 180C37.163 180 37.7987 180.263 38.2676 180.732C38.7364 181.201 39 181.837 39 182.5C39 183.163 38.7364 183.799 38.2676 184.268C37.7987 184.737 37.163 185 36.5 185C35.837 185 35.2013 184.737 34.7324 184.268C34.2636 183.799 34 183.163 34 182.5ZM19 182.5C19 181.837 19.2636 181.201 19.7324 180.732C20.2013 180.263 20.837 180 21.5 180C22.163 180 22.7987 180.263 23.2676 180.732C23.7364 181.201 24 181.837 24 182.5C24 183.163 23.7364 183.799 23.2676 184.268C22.7987 184.737 22.163 185 21.5 185C20.837 185 20.2013 184.737 19.7324 184.268C19.2636 183.799 19 183.163 19 182.5ZM4 182.5C4 181.837 4.26358 181.201 4.73242 180.732C5.20126 180.263 5.83696 180 6.5 180C7.16304 180 7.79874 180.263 8.26758 180.732C8.73642 181.201 9 181.837 9 182.5C9 183.163 8.73642 183.799 8.26758 184.268C7.79874 184.737 7.16304 185 6.5 185C5.83696 185 5.20126 184.737 4.73242 184.268C4.26358 183.799 4 183.163 4 182.5ZM154 167.5C154 166.837 154.264 166.201 154.732 165.732C155.201 165.263 155.837 165 156.5 165C157.163 165 157.799 165.263 158.268 165.732C158.736 166.201 159 166.837 159 167.5C159 168.163 158.736 168.799 158.268 169.268C157.799 169.737 157.163 170 156.5 170C155.837 170 155.201 169.737 154.732 169.268C154.264 168.799 154 168.163 154 167.5ZM139 167.5C139 166.837 139.264 166.201 139.732 165.732C140.201 165.263 140.837 165 141.5 165C142.163 165 142.799 165.263 143.268 165.732C143.736 166.201 144 166.837 144 167.5C144 168.163 143.736 168.799 143.268 169.268C142.799 169.737 142.163 170 141.5 170C140.837 170 140.201 169.737 139.732 169.268C139.264 168.799 139 168.163 139 167.5ZM124 167.5C124 166.837 124.264 166.201 124.732 165.732C125.201 165.263 125.837 165 126.5 165C127.163 165 127.799 165.263 128.268 165.732C128.736 166.201 129 166.837 129 167.5C129 168.163 128.736 168.799 128.268 169.268C127.799 169.737 127.163 170 126.5 170C125.837 170 125.201 169.737 124.732 169.268C124.264 168.799 124 168.163 124 167.5ZM109 167.5C109 166.837 109.264 166.201 109.732 165.732C110.201 165.263 110.837 165 111.5 165C112.163 165 112.799 165.263 113.268 165.732C113.736 166.201 114 166.837 114 167.5C114 168.163 113.736 168.799 113.268 169.268C112.799 169.737 112.163 170 111.5 170C110.837 170 110.201 169.737 109.732 169.268C109.264 168.799 109 168.163 109 167.5ZM94 167.5C94 166.837 94.2636 166.201 94.7324 165.732C95.2013 165.263 95.837 165 96.5 165C97.163 165 97.7987 165.263 98.2676 165.732C98.7364 166.201 99 166.837 99 167.5C99 168.163 98.7364 168.799 98.2676 169.268C97.7987 169.737 97.163 170 96.5 170C95.837 170 95.2013 169.737 94.7324 169.268C94.2636 168.799 94 168.163 94 167.5ZM79 167.5C79 166.837 79.2636 166.201 79.7324 165.732C80.2013 165.263 80.837 165 81.5 165C82.163 165 82.7987 165.263 83.2676 165.732C83.7364 166.201 84 166.837 84 167.5C84 168.163 83.7364 168.799 83.2676 169.268C82.7987 169.737 82.163 170 81.5 170C80.837 170 80.2013 169.737 79.7324 169.268C79.2636 168.799 79 168.163 79 167.5ZM64 167.5C64 166.837 64.2636 166.201 64.7324 165.732C65.2013 165.263 65.837 165 66.5 165C67.163 165 67.7987 165.263 68.2676 165.732C68.7364 166.201 69 166.837 69 167.5C69 168.163 68.7364 168.799 68.2676 169.268C67.7987 169.737 67.163 170 66.5 170C65.837 170 65.2013 169.737 64.7324 169.268C64.2636 168.799 64 168.163 64 167.5ZM49 167.5C49 166.837 49.2636 166.201 49.7324 165.732C50.2013 165.263 50.837 165 51.5 165C52.163 165 52.7987 165.263 53.2676 165.732C53.7364 166.201 54 166.837 54 167.5C54 168.163 53.7364 168.799 53.2676 169.268C52.7987 169.737 52.163 170 51.5 170C50.837 170 50.2013 169.737 49.7324 169.268C49.2636 168.799 49 168.163 49 167.5ZM34 167.5C34 166.837 34.2636 166.201 34.7324 165.732C35.2013 165.263 35.837 165 36.5 165C37.163 165 37.7987 165.263 38.2676 165.732C38.7364 166.201 39 166.837 39 167.5C39 168.163 38.7364 168.799 38.2676 169.268C37.7987 169.737 37.163 170 36.5 170C35.837 170 35.2013 169.737 34.7324 169.268C34.2636 168.799 34 168.163 34 167.5ZM19 167.5C19 166.837 19.2636 166.201 19.7324 165.732C20.2013 165.263 20.837 165 21.5 165C22.163 165 22.7987 165.263 23.2676 165.732C23.7364 166.201 24 166.837 24 167.5C24 168.163 23.7364 168.799 23.2676 169.268C22.7987 169.737 22.163 170 21.5 170C20.837 170 20.2013 169.737 19.7324 169.268C19.2636 168.799 19 168.163 19 167.5ZM4 167.5C4 166.837 4.26358 166.201 4.73242 165.732C5.20126 165.263 5.83696 165 6.5 165C7.16304 165 7.79874 165.263 8.26758 165.732C8.73642 166.201 9 166.837 9 167.5C9 168.163 8.73642 168.799 8.26758 169.268C7.79874 169.737 7.16304 170 6.5 170C5.83696 170 5.20126 169.737 4.73242 169.268C4.26358 168.799 4 168.163 4 167.5ZM154 152.5C154 151.837 154.264 151.201 154.732 150.732C155.201 150.263 155.837 150 156.5 150C157.163 150 157.799 150.263 158.268 150.732C158.736 151.201 159 151.837 159 152.5C159 153.163 158.736 153.799 158.268 154.268C157.799 154.737 157.163 155 156.5 155C155.837 155 155.201 154.737 154.732 154.268C154.264 153.799 154 153.163 154 152.5ZM139 152.5C139 151.837 139.264 151.201 139.732 150.732C140.201 150.263 140.837 150 141.5 150C142.163 150 142.799 150.263 143.268 150.732C143.736 151.201 144 151.837 144 152.5C144 153.163 143.736 153.799 143.268 154.268C142.799 154.737 142.163 155 141.5 155C140.837 155 140.201 154.737 139.732 154.268C139.264 153.799 139 153.163 139 152.5ZM124 152.5C124 151.837 124.264 151.201 124.732 150.732C125.201 150.263 125.837 150 126.5 150C127.163 150 127.799 150.263 128.268 150.732C128.736 151.201 129 151.837 129 152.5C129 153.163 128.736 153.799 128.268 154.268C127.799 154.737 127.163 155 126.5 155C125.837 155 125.201 154.737 124.732 154.268C124.264 153.799 124 153.163 124 152.5ZM109 152.5C109 151.837 109.264 151.201 109.732 150.732C110.201 150.263 110.837 150 111.5 150C112.163 150 112.799 150.263 113.268 150.732C113.736 151.201 114 151.837 114 152.5C114 153.163 113.736 153.799 113.268 154.268C112.799 154.737 112.163 155 111.5 155C110.837 155 110.201 154.737 109.732 154.268C109.264 153.799 109 153.163 109 152.5ZM94 152.5C94 151.837 94.2636 151.201 94.7324 150.732C95.2013 150.263 95.837 150 96.5 150C97.163 150 97.7987 150.263 98.2676 150.732C98.7364 151.201 99 151.837 99 152.5C99 153.163 98.7364 153.799 98.2676 154.268C97.7987 154.737 97.163 155 96.5 155C95.837 155 95.2013 154.737 94.7324 154.268C94.2636 153.799 94 153.163 94 152.5ZM79 152.5C79 151.837 79.2636 151.201 79.7324 150.732C80.2013 150.263 80.837 150 81.5 150C82.163 150 82.7987 150.263 83.2676 150.732C83.7364 151.201 84 151.837 84 152.5C84 153.163 83.7364 153.799 83.2676 154.268C82.7987 154.737 82.163 155 81.5 155C80.837 155 80.2013 154.737 79.7324 154.268C79.2636 153.799 79 153.163 79 152.5ZM64 152.5C64 151.837 64.2636 151.201 64.7324 150.732C65.2013 150.263 65.837 150 66.5 150C67.163 150 67.7987 150.263 68.2676 150.732C68.7364 151.201 69 151.837 69 152.5C69 153.163 68.7364 153.799 68.2676 154.268C67.7987 154.737 67.163 155 66.5 155C65.837 155 65.2013 154.737 64.7324 154.268C64.2636 153.799 64 153.163 64 152.5ZM49 152.5C49 151.837 49.2636 151.201 49.7324 150.732C50.2013 150.263 50.837 150 51.5 150C52.163 150 52.7987 150.263 53.2676 150.732C53.7364 151.201 54 151.837 54 152.5C54 153.163 53.7364 153.799 53.2676 154.268C52.7987 154.737 52.163 155 51.5 155C50.837 155 50.2013 154.737 49.7324 154.268C49.2636 153.799 49 153.163 49 152.5ZM34 152.5C34 151.837 34.2636 151.201 34.7324 150.732C35.2013 150.263 35.837 150 36.5 150C37.163 150 37.7987 150.263 38.2676 150.732C38.7364 151.201 39 151.837 39 152.5C39 153.163 38.7364 153.799 38.2676 154.268C37.7987 154.737 37.163 155 36.5 155C35.837 155 35.2013 154.737 34.7324 154.268C34.2636 153.799 34 153.163 34 152.5ZM19 152.5C19 151.837 19.2636 151.201 19.7324 150.732C20.2013 150.263 20.837 150 21.5 150C22.163 150 22.7987 150.263 23.2676 150.732C23.7364 151.201 24 151.837 24 152.5C24 153.163 23.7364 153.799 23.2676 154.268C22.7987 154.737 22.163 155 21.5 155C20.837 155 20.2013 154.737 19.7324 154.268C19.2636 153.799 19 153.163 19 152.5ZM4 152.5C4 151.837 4.26358 151.201 4.73242 150.732C5.20126 150.263 5.83696 150 6.5 150C7.16304 150 7.79874 150.263 8.26758 150.732C8.73642 151.201 9 151.837 9 152.5C9 153.163 8.73642 153.799 8.26758 154.268C7.79874 154.737 7.16304 155 6.5 155C5.83696 155 5.20126 154.737 4.73242 154.268C4.26358 153.799 4 153.163 4 152.5ZM154 137.5C154 136.837 154.264 136.201 154.732 135.732C155.201 135.263 155.837 135 156.5 135C157.163 135 157.799 135.263 158.268 135.732C158.736 136.201 159 136.837 159 137.5C159 138.163 158.736 138.799 158.268 139.268C157.799 139.737 157.163 140 156.5 140C155.837 140 155.201 139.737 154.732 139.268C154.264 138.799 154 138.163 154 137.5ZM139 137.5C139 136.837 139.264 136.201 139.732 135.732C140.201 135.263 140.837 135 141.5 135C142.163 135 142.799 135.263 143.268 135.732C143.736 136.201 144 136.837 144 137.5C144 138.163 143.736 138.799 143.268 139.268C142.799 139.737 142.163 140 141.5 140C140.837 140 140.201 139.737 139.732 139.268C139.264 138.799 139 138.163 139 137.5ZM124 137.5C124 136.837 124.264 136.201 124.732 135.732C125.201 135.263 125.837 135 126.5 135C127.163 135 127.799 135.263 128.268 135.732C128.736 136.201 129 136.837 129 137.5C129 138.163 128.736 138.799 128.268 139.268C127.799 139.737 127.163 140 126.5 140C125.837 140 125.201 139.737 124.732 139.268C124.264 138.799 124 138.163 124 137.5ZM109 137.5C109 136.837 109.264 136.201 109.732 135.732C110.201 135.263 110.837 135 111.5 135C112.163 135 112.799 135.263 113.268 135.732C113.736 136.201 114 136.837 114 137.5C114 138.163 113.736 138.799 113.268 139.268C112.799 139.737 112.163 140 111.5 140C110.837 140 110.201 139.737 109.732 139.268C109.264 138.799 109 138.163 109 137.5ZM94 137.5C94 136.837 94.2636 136.201 94.7324 135.732C95.2013 135.263 95.837 135 96.5 135C97.163 135 97.7987 135.263 98.2676 135.732C98.7364 136.201 99 136.837 99 137.5C99 138.163 98.7364 138.799 98.2676 139.268C97.7987 139.737 97.163 140 96.5 140C95.837 140 95.2013 139.737 94.7324 139.268C94.2636 138.799 94 138.163 94 137.5ZM79 137.5C79 136.837 79.2636 136.201 79.7324 135.732C80.2013 135.263 80.837 135 81.5 135C82.163 135 82.7987 135.263 83.2676 135.732C83.7364 136.201 84 136.837 84 137.5C84 138.163 83.7364 138.799 83.2676 139.268C82.7987 139.737 82.163 140 81.5 140C80.837 140 80.2013 139.737 79.7324 139.268C79.2636 138.799 79 138.163 79 137.5ZM64 137.5C64 136.837 64.2636 136.201 64.7324 135.732C65.2013 135.263 65.837 135 66.5 135C67.163 135 67.7987 135.263 68.2676 135.732C68.7364 136.201 69 136.837 69 137.5C69 138.163 68.7364 138.799 68.2676 139.268C67.7987 139.737 67.163 140 66.5 140C65.837 140 65.2013 139.737 64.7324 139.268C64.2636 138.799 64 138.163 64 137.5ZM49 137.5C49 136.837 49.2636 136.201 49.7324 135.732C50.2013 135.263 50.837 135 51.5 135C52.163 135 52.7987 135.263 53.2676 135.732C53.7364 136.201 54 136.837 54 137.5C54 138.163 53.7364 138.799 53.2676 139.268C52.7987 139.737 52.163 140 51.5 140C50.837 140 50.2013 139.737 49.7324 139.268C49.2636 138.799 49 138.163 49 137.5ZM34 137.5C34 136.837 34.2636 136.201 34.7324 135.732C35.2013 135.263 35.837 135 36.5 135C37.163 135 37.7987 135.263 38.2676 135.732C38.7364 136.201 39 136.837 39 137.5C39 138.163 38.7364 138.799 38.2676 139.268C37.7987 139.737 37.163 140 36.5 140C35.837 140 35.2013 139.737 34.7324 139.268C34.2636 138.799 34 138.163 34 137.5ZM19 137.5C19 136.837 19.2636 136.201 19.7324 135.732C20.2013 135.263 20.837 135 21.5 135C22.163 135 22.7987 135.263 23.2676 135.732C23.7364 136.201 24 136.837 24 137.5C24 138.163 23.7364 138.799 23.2676 139.268C22.7987 139.737 22.163 140 21.5 140C20.837 140 20.2013 139.737 19.7324 139.268C19.2636 138.799 19 138.163 19 137.5ZM4 137.5C4 136.837 4.26358 136.201 4.73242 135.732C5.20126 135.263 5.83696 135 6.5 135C7.16304 135 7.79874 135.263 8.26758 135.732C8.73642 136.201 9 136.837 9 137.5C9 138.163 8.73642 138.799 8.26758 139.268C7.79874 139.737 7.16304 140 6.5 140C5.83696 140 5.20126 139.737 4.73242 139.268C4.26358 138.799 4 138.163 4 137.5ZM154 122.5C154 121.837 154.264 121.201 154.732 120.732C155.201 120.263 155.837 120 156.5 120C157.163 120 157.799 120.263 158.268 120.732C158.736 121.201 159 121.837 159 122.5C159 123.163 158.736 123.799 158.268 124.268C157.799 124.737 157.163 125 156.5 125C155.837 125 155.201 124.737 154.732 124.268C154.264 123.799 154 123.163 154 122.5ZM139 122.5C139 121.837 139.264 121.201 139.732 120.732C140.201 120.263 140.837 120 141.5 120C142.163 120 142.799 120.263 143.268 120.732C143.736 121.201 144 121.837 144 122.5C144 123.163 143.736 123.799 143.268 124.268C142.799 124.737 142.163 125 141.5 125C140.837 125 140.201 124.737 139.732 124.268C139.264 123.799 139 123.163 139 122.5ZM124 122.5C124 121.837 124.264 121.201 124.732 120.732C125.201 120.263 125.837 120 126.5 120C127.163 120 127.799 120.263 128.268 120.732C128.736 121.201 129 121.837 129 122.5C129 123.163 128.736 123.799 128.268 124.268C127.799 124.737 127.163 125 126.5 125C125.837 125 125.201 124.737 124.732 124.268C124.264 123.799 124 123.163 124 122.5ZM109 122.5C109 121.837 109.264 121.201 109.732 120.732C110.201 120.263 110.837 120 111.5 120C112.163 120 112.799 120.263 113.268 120.732C113.736 121.201 114 121.837 114 122.5C114 123.163 113.736 123.799 113.268 124.268C112.799 124.737 112.163 125 111.5 125C110.837 125 110.201 124.737 109.732 124.268C109.264 123.799 109 123.163 109 122.5ZM94 122.5C94 121.837 94.2636 121.201 94.7324 120.732C95.2013 120.263 95.837 120 96.5 120C97.163 120 97.7987 120.263 98.2676 120.732C98.7364 121.201 99 121.837 99 122.5C99 123.163 98.7364 123.799 98.2676 124.268C97.7987 124.737 97.163 125 96.5 125C95.837 125 95.2013 124.737 94.7324 124.268C94.2636 123.799 94 123.163 94 122.5ZM79 122.5C79 121.837 79.2636 121.201 79.7324 120.732C80.2013 120.263 80.837 120 81.5 120C82.163 120 82.7987 120.263 83.2676 120.732C83.7364 121.201 84 121.837 84 122.5C84 123.163 83.7364 123.799 83.2676 124.268C82.7987 124.737 82.163 125 81.5 125C80.837 125 80.2013 124.737 79.7324 124.268C79.2636 123.799 79 123.163 79 122.5ZM64 122.5C64 121.837 64.2636 121.201 64.7324 120.732C65.2013 120.263 65.837 120 66.5 120C67.163 120 67.7987 120.263 68.2676 120.732C68.7364 121.201 69 121.837 69 122.5C69 123.163 68.7364 123.799 68.2676 124.268C67.7987 124.737 67.163 125 66.5 125C65.837 125 65.2013 124.737 64.7324 124.268C64.2636 123.799 64 123.163 64 122.5ZM49 122.5C49 121.837 49.2636 121.201 49.7324 120.732C50.2013 120.263 50.837 120 51.5 120C52.163 120 52.7987 120.263 53.2676 120.732C53.7364 121.201 54 121.837 54 122.5C54 123.163 53.7364 123.799 53.2676 124.268C52.7987 124.737 52.163 125 51.5 125C50.837 125 50.2013 124.737 49.7324 124.268C49.2636 123.799 49 123.163 49 122.5ZM34 122.5C34 121.837 34.2636 121.201 34.7324 120.732C35.2013 120.263 35.837 120 36.5 120C37.163 120 37.7987 120.263 38.2676 120.732C38.7364 121.201 39 121.837 39 122.5C39 123.163 38.7364 123.799 38.2676 124.268C37.7987 124.737 37.163 125 36.5 125C35.837 125 35.2013 124.737 34.7324 124.268C34.2636 123.799 34 123.163 34 122.5ZM19 122.5C19 121.837 19.2636 121.201 19.7324 120.732C20.2013 120.263 20.837 120 21.5 120C22.163 120 22.7987 120.263 23.2676 120.732C23.7364 121.201 24 121.837 24 122.5C24 123.163 23.7364 123.799 23.2676 124.268C22.7987 124.737 22.163 125 21.5 125C20.837 125 20.2013 124.737 19.7324 124.268C19.2636 123.799 19 123.163 19 122.5ZM4 122.5C4 121.837 4.26358 121.201 4.73242 120.732C5.20126 120.263 5.83696 120 6.5 120C7.16304 120 7.79874 120.263 8.26758 120.732C8.73642 121.201 9 121.837 9 122.5C9 123.163 8.73642 123.799 8.26758 124.268C7.79874 124.737 7.16304 125 6.5 125C5.83696 125 5.20126 124.737 4.73242 124.268C4.26358 123.799 4 123.163 4 122.5ZM154 107.5C154 106.837 154.264 106.201 154.732 105.732C155.201 105.263 155.837 105 156.5 105C157.163 105 157.799 105.263 158.268 105.732C158.736 106.201 159 106.837 159 107.5C159 108.163 158.736 108.799 158.268 109.268C157.799 109.737 157.163 110 156.5 110C155.837 110 155.201 109.737 154.732 109.268C154.264 108.799 154 108.163 154 107.5ZM139 107.5C139 106.837 139.264 106.201 139.732 105.732C140.201 105.263 140.837 105 141.5 105C142.163 105 142.799 105.263 143.268 105.732C143.736 106.201 144 106.837 144 107.5C144 108.163 143.736 108.799 143.268 109.268C142.799 109.737 142.163 110 141.5 110C140.837 110 140.201 109.737 139.732 109.268C139.264 108.799 139 108.163 139 107.5ZM124 107.5C124 106.837 124.264 106.201 124.732 105.732C125.201 105.263 125.837 105 126.5 105C127.163 105 127.799 105.263 128.268 105.732C128.736 106.201 129 106.837 129 107.5C129 108.163 128.736 108.799 128.268 109.268C127.799 109.737 127.163 110 126.5 110C125.837 110 125.201 109.737 124.732 109.268C124.264 108.799 124 108.163 124 107.5ZM109 107.5C109 106.837 109.264 106.201 109.732 105.732C110.201 105.263 110.837 105 111.5 105C112.163 105 112.799 105.263 113.268 105.732C113.736 106.201 114 106.837 114 107.5C114 108.163 113.736 108.799 113.268 109.268C112.799 109.737 112.163 110 111.5 110C110.837 110 110.201 109.737 109.732 109.268C109.264 108.799 109 108.163 109 107.5ZM94 107.5C94 106.837 94.2636 106.201 94.7324 105.732C95.2013 105.263 95.837 105 96.5 105C97.163 105 97.7987 105.263 98.2676 105.732C98.7364 106.201 99 106.837 99 107.5C99 108.163 98.7364 108.799 98.2676 109.268C97.7987 109.737 97.163 110 96.5 110C95.837 110 95.2013 109.737 94.7324 109.268C94.2636 108.799 94 108.163 94 107.5ZM79 107.5C79 106.837 79.2636 106.201 79.7324 105.732C80.2013 105.263 80.837 105 81.5 105C82.163 105 82.7987 105.263 83.2676 105.732C83.7364 106.201 84 106.837 84 107.5C84 108.163 83.7364 108.799 83.2676 109.268C82.7987 109.737 82.163 110 81.5 110C80.837 110 80.2013 109.737 79.7324 109.268C79.2636 108.799 79 108.163 79 107.5ZM64 107.5C64 106.837 64.2636 106.201 64.7324 105.732C65.2013 105.263 65.837 105 66.5 105C67.163 105 67.7987 105.263 68.2676 105.732C68.7364 106.201 69 106.837 69 107.5C69 108.163 68.7364 108.799 68.2676 109.268C67.7987 109.737 67.163 110 66.5 110C65.837 110 65.2013 109.737 64.7324 109.268C64.2636 108.799 64 108.163 64 107.5ZM49 107.5C49 106.837 49.2636 106.201 49.7324 105.732C50.2013 105.263 50.837 105 51.5 105C52.163 105 52.7987 105.263 53.2676 105.732C53.7364 106.201 54 106.837 54 107.5C54 108.163 53.7364 108.799 53.2676 109.268C52.7987 109.737 52.163 110 51.5 110C50.837 110 50.2013 109.737 49.7324 109.268C49.2636 108.799 49 108.163 49 107.5ZM34 107.5C34 106.837 34.2636 106.201 34.7324 105.732C35.2013 105.263 35.837 105 36.5 105C37.163 105 37.7987 105.263 38.2676 105.732C38.7364 106.201 39 106.837 39 107.5C39 108.163 38.7364 108.799 38.2676 109.268C37.7987 109.737 37.163 110 36.5 110C35.837 110 35.2013 109.737 34.7324 109.268C34.2636 108.799 34 108.163 34 107.5ZM19 107.5C19 106.837 19.2636 106.201 19.7324 105.732C20.2013 105.263 20.837 105 21.5 105C22.163 105 22.7987 105.263 23.2676 105.732C23.7364 106.201 24 106.837 24 107.5C24 108.163 23.7364 108.799 23.2676 109.268C22.7987 109.737 22.163 110 21.5 110C20.837 110 20.2013 109.737 19.7324 109.268C19.2636 108.799 19 108.163 19 107.5ZM4 107.5C4 106.837 4.26358 106.201 4.73242 105.732C5.20126 105.263 5.83696 105 6.5 105C7.16304 105 7.79874 105.263 8.26758 105.732C8.73642 106.201 9 106.837 9 107.5C9 108.163 8.73642 108.799 8.26758 109.268C7.79874 109.737 7.16304 110 6.5 110C5.83696 110 5.20126 109.737 4.73242 109.268C4.26358 108.799 4 108.163 4 107.5ZM154 92.5C154 91.837 154.264 91.2011 154.732 90.7322C155.201 90.2634 155.837 90 156.5 90C157.163 90 157.799 90.2634 158.268 90.7322C158.736 91.2011 159 91.837 159 92.5C159 93.163 158.736 93.7989 158.268 94.2678C157.799 94.7366 157.163 95 156.5 95C155.837 95 155.201 94.7366 154.732 94.2678C154.264 93.7989 154 93.163 154 92.5ZM139 92.5C139 91.837 139.264 91.2011 139.732 90.7322C140.201 90.2634 140.837 90 141.5 90C142.163 90 142.799 90.2634 143.268 90.7322C143.736 91.2011 144 91.837 144 92.5C144 93.163 143.736 93.7989 143.268 94.2678C142.799 94.7366 142.163 95 141.5 95C140.837 95 140.201 94.7366 139.732 94.2678C139.264 93.7989 139 93.163 139 92.5ZM124 92.5C124 91.837 124.264 91.2011 124.732 90.7322C125.201 90.2634 125.837 90 126.5 90C127.163 90 127.799 90.2634 128.268 90.7322C128.736 91.2011 129 91.837 129 92.5C129 93.163 128.736 93.7989 128.268 94.2678C127.799 94.7366 127.163 95 126.5 95C125.837 95 125.201 94.7366 124.732 94.2678C124.264 93.7989 124 93.163 124 92.5ZM109 92.5C109 91.837 109.264 91.2011 109.732 90.7322C110.201 90.2634 110.837 90 111.5 90C112.163 90 112.799 90.2634 113.268 90.7322C113.736 91.2011 114 91.837 114 92.5C114 93.163 113.736 93.7989 113.268 94.2678C112.799 94.7366 112.163 95 111.5 95C110.837 95 110.201 94.7366 109.732 94.2678C109.264 93.7989 109 93.163 109 92.5ZM94 92.5C94 91.837 94.2636 91.2011 94.7324 90.7322C95.2013 90.2634 95.837 90 96.5 90C97.163 90 97.7987 90.2634 98.2676 90.7322C98.7364 91.2011 99 91.837 99 92.5C99 93.163 98.7364 93.7989 98.2676 94.2678C97.7987 94.7366 97.163 95 96.5 95C95.837 95 95.2013 94.7366 94.7324 94.2678C94.2636 93.7989 94 93.163 94 92.5ZM79 92.5C79 91.837 79.2636 91.2011 79.7324 90.7322C80.2013 90.2634 80.837 90 81.5 90C82.163 90 82.7987 90.2634 83.2676 90.7322C83.7364 91.2011 84 91.837 84 92.5C84 93.163 83.7364 93.7989 83.2676 94.2678C82.7987 94.7366 82.163 95 81.5 95C80.837 95 80.2013 94.7366 79.7324 94.2678C79.2636 93.7989 79 93.163 79 92.5ZM64 92.5C64 91.837 64.2636 91.2011 64.7324 90.7322C65.2013 90.2634 65.837 90 66.5 90C67.163 90 67.7987 90.2634 68.2676 90.7322C68.7364 91.2011 69 91.837 69 92.5C69 93.163 68.7364 93.7989 68.2676 94.2678C67.7987 94.7366 67.163 95 66.5 95C65.837 95 65.2013 94.7366 64.7324 94.2678C64.2636 93.7989 64 93.163 64 92.5ZM49 92.5C49 91.837 49.2636 91.2011 49.7324 90.7322C50.2013 90.2634 50.837 90 51.5 90C52.163 90 52.7987 90.2634 53.2676 90.7322C53.7364 91.2011 54 91.837 54 92.5C54 93.163 53.7364 93.7989 53.2676 94.2678C52.7987 94.7366 52.163 95 51.5 95C50.837 95 50.2013 94.7366 49.7324 94.2678C49.2636 93.7989 49 93.163 49 92.5ZM34 92.5C34 91.837 34.2636 91.2011 34.7324 90.7322C35.2013 90.2634 35.837 90 36.5 90C37.163 90 37.7987 90.2634 38.2676 90.7322C38.7364 91.2011 39 91.837 39 92.5C39 93.163 38.7364 93.7989 38.2676 94.2678C37.7987 94.7366 37.163 95 36.5 95C35.837 95 35.2013 94.7366 34.7324 94.2678C34.2636 93.7989 34 93.163 34 92.5ZM19 92.5C19 91.837 19.2636 91.2011 19.7324 90.7322C20.2013 90.2634 20.837 90 21.5 90C22.163 90 22.7987 90.2634 23.2676 90.7322C23.7364 91.2011 24 91.837 24 92.5C24 93.163 23.7364 93.7989 23.2676 94.2678C22.7987 94.7366 22.163 95 21.5 95C20.837 95 20.2013 94.7366 19.7324 94.2678C19.2636 93.7989 19 93.163 19 92.5ZM4 92.5C4 91.837 4.26358 91.2011 4.73242 90.7322C5.20126 90.2634 5.83696 90 6.5 90C7.16304 90 7.79874 90.2634 8.26758 90.7322C8.73642 91.2011 9 91.837 9 92.5C9 93.163 8.73642 93.7989 8.26758 94.2678C7.79874 94.7366 7.16304 95 6.5 95C5.83696 95 5.20126 94.7366 4.73242 94.2678C4.26358 93.7989 4 93.163 4 92.5ZM154 77.5C154 76.837 154.264 76.2011 154.732 75.7322C155.201 75.2634 155.837 75 156.5 75C157.163 75 157.799 75.2634 158.268 75.7322C158.736 76.2011 159 76.837 159 77.5C159 78.163 158.736 78.7989 158.268 79.2678C157.799 79.7366 157.163 80 156.5 80C155.837 80 155.201 79.7366 154.732 79.2678C154.264 78.7989 154 78.163 154 77.5ZM139 77.5C139 76.837 139.264 76.2011 139.732 75.7322C140.201 75.2634 140.837 75 141.5 75C142.163 75 142.799 75.2634 143.268 75.7322C143.736 76.2011 144 76.837 144 77.5C144 78.163 143.736 78.7989 143.268 79.2678C142.799 79.7366 142.163 80 141.5 80C140.837 80 140.201 79.7366 139.732 79.2678C139.264 78.7989 139 78.163 139 77.5ZM124 77.5C124 76.837 124.264 76.2011 124.732 75.7322C125.201 75.2634 125.837 75 126.5 75C127.163 75 127.799 75.2634 128.268 75.7322C128.736 76.2011 129 76.837 129 77.5C129 78.163 128.736 78.7989 128.268 79.2678C127.799 79.7366 127.163 80 126.5 80C125.837 80 125.201 79.7366 124.732 79.2678C124.264 78.7989 124 78.163 124 77.5ZM109 77.5C109 76.837 109.264 76.2011 109.732 75.7322C110.201 75.2634 110.837 75 111.5 75C112.163 75 112.799 75.2634 113.268 75.7322C113.736 76.2011 114 76.837 114 77.5C114 78.163 113.736 78.7989 113.268 79.2678C112.799 79.7366 112.163 80 111.5 80C110.837 80 110.201 79.7366 109.732 79.2678C109.264 78.7989 109 78.163 109 77.5ZM94 77.5C94 76.837 94.2636 76.2011 94.7324 75.7322C95.2013 75.2634 95.837 75 96.5 75C97.163 75 97.7987 75.2634 98.2676 75.7322C98.7364 76.2011 99 76.837 99 77.5C99 78.163 98.7364 78.7989 98.2676 79.2678C97.7987 79.7366 97.163 80 96.5 80C95.837 80 95.2013 79.7366 94.7324 79.2678C94.2636 78.7989 94 78.163 94 77.5ZM79 77.5C79 76.837 79.2636 76.2011 79.7324 75.7322C80.2013 75.2634 80.837 75 81.5 75C82.163 75 82.7987 75.2634 83.2676 75.7322C83.7364 76.2011 84 76.837 84 77.5C84 78.163 83.7364 78.7989 83.2676 79.2678C82.7987 79.7366 82.163 80 81.5 80C80.837 80 80.2013 79.7366 79.7324 79.2678C79.2636 78.7989 79 78.163 79 77.5ZM64 77.5C64 76.837 64.2636 76.2011 64.7324 75.7322C65.2013 75.2634 65.837 75 66.5 75C67.163 75 67.7987 75.2634 68.2676 75.7322C68.7364 76.2011 69 76.837 69 77.5C69 78.163 68.7364 78.7989 68.2676 79.2678C67.7987 79.7366 67.163 80 66.5 80C65.837 80 65.2013 79.7366 64.7324 79.2678C64.2636 78.7989 64 78.163 64 77.5ZM49 77.5C49 76.837 49.2636 76.2011 49.7324 75.7322C50.2013 75.2634 50.837 75 51.5 75C52.163 75 52.7987 75.2634 53.2676 75.7322C53.7364 76.2011 54 76.837 54 77.5C54 78.163 53.7364 78.7989 53.2676 79.2678C52.7987 79.7366 52.163 80 51.5 80C50.837 80 50.2013 79.7366 49.7324 79.2678C49.2636 78.7989 49 78.163 49 77.5ZM34 77.5C34 76.837 34.2636 76.2011 34.7324 75.7322C35.2013 75.2634 35.837 75 36.5 75C37.163 75 37.7987 75.2634 38.2676 75.7322C38.7364 76.2011 39 76.837 39 77.5C39 78.163 38.7364 78.7989 38.2676 79.2678C37.7987 79.7366 37.163 80 36.5 80C35.837 80 35.2013 79.7366 34.7324 79.2678C34.2636 78.7989 34 78.163 34 77.5ZM19 77.5C19 76.837 19.2636 76.2011 19.7324 75.7322C20.2013 75.2634 20.837 75 21.5 75C22.163 75 22.7987 75.2634 23.2676 75.7322C23.7364 76.2011 24 76.837 24 77.5C24 78.163 23.7364 78.7989 23.2676 79.2678C22.7987 79.7366 22.163 80 21.5 80C20.837 80 20.2013 79.7366 19.7324 79.2678C19.2636 78.7989 19 78.163 19 77.5ZM4 77.5C4 76.837 4.26358 76.2011 4.73242 75.7322C5.20126 75.2634 5.83696 75 6.5 75C7.16304 75 7.79874 75.2634 8.26758 75.7322C8.73642 76.2011 9 76.837 9 77.5C9 78.163 8.73642 78.7989 8.26758 79.2678C7.79874 79.7366 7.16304 80 6.5 80C5.83696 80 5.20126 79.7366 4.73242 79.2678C4.26358 78.7989 4 78.163 4 77.5ZM154 62.5C154 61.837 154.264 61.2011 154.732 60.7322C155.201 60.2634 155.837 60 156.5 60C157.163 60 157.799 60.2634 158.268 60.7322C158.736 61.2011 159 61.837 159 62.5C159 63.163 158.736 63.7989 158.268 64.2678C157.799 64.7366 157.163 65 156.5 65C155.837 65 155.201 64.7366 154.732 64.2678C154.264 63.7989 154 63.163 154 62.5ZM139 62.5C139 61.837 139.264 61.2011 139.732 60.7322C140.201 60.2634 140.837 60 141.5 60C142.163 60 142.799 60.2634 143.268 60.7322C143.736 61.2011 144 61.837 144 62.5C144 63.163 143.736 63.7989 143.268 64.2678C142.799 64.7366 142.163 65 141.5 65C140.837 65 140.201 64.7366 139.732 64.2678C139.264 63.7989 139 63.163 139 62.5ZM124 62.5C124 61.837 124.264 61.2011 124.732 60.7322C125.201 60.2634 125.837 60 126.5 60C127.163 60 127.799 60.2634 128.268 60.7322C128.736 61.2011 129 61.837 129 62.5C129 63.163 128.736 63.7989 128.268 64.2678C127.799 64.7366 127.163 65 126.5 65C125.837 65 125.201 64.7366 124.732 64.2678C124.264 63.7989 124 63.163 124 62.5ZM109 62.5C109 61.837 109.264 61.2011 109.732 60.7322C110.201 60.2634 110.837 60 111.5 60C112.163 60 112.799 60.2634 113.268 60.7322C113.736 61.2011 114 61.837 114 62.5C114 63.163 113.736 63.7989 113.268 64.2678C112.799 64.7366 112.163 65 111.5 65C110.837 65 110.201 64.7366 109.732 64.2678C109.264 63.7989 109 63.163 109 62.5ZM94 62.5C94 61.837 94.2636 61.2011 94.7324 60.7322C95.2013 60.2634 95.837 60 96.5 60C97.163 60 97.7987 60.2634 98.2676 60.7322C98.7364 61.2011 99 61.837 99 62.5C99 63.163 98.7364 63.7989 98.2676 64.2678C97.7987 64.7366 97.163 65 96.5 65C95.837 65 95.2013 64.7366 94.7324 64.2678C94.2636 63.7989 94 63.163 94 62.5ZM79 62.5C79 61.837 79.2636 61.2011 79.7324 60.7322C80.2013 60.2634 80.837 60 81.5 60C82.163 60 82.7987 60.2634 83.2676 60.7322C83.7364 61.2011 84 61.837 84 62.5C84 63.163 83.7364 63.7989 83.2676 64.2678C82.7987 64.7366 82.163 65 81.5 65C80.837 65 80.2013 64.7366 79.7324 64.2678C79.2636 63.7989 79 63.163 79 62.5ZM64 62.5C64 61.837 64.2636 61.2011 64.7324 60.7322C65.2013 60.2634 65.837 60 66.5 60C67.163 60 67.7987 60.2634 68.2676 60.7322C68.7364 61.2011 69 61.837 69 62.5C69 63.163 68.7364 63.7989 68.2676 64.2678C67.7987 64.7366 67.163 65 66.5 65C65.837 65 65.2013 64.7366 64.7324 64.2678C64.2636 63.7989 64 63.163 64 62.5ZM49 62.5C49 61.837 49.2636 61.2011 49.7324 60.7322C50.2013 60.2634 50.837 60 51.5 60C52.163 60 52.7987 60.2634 53.2676 60.7322C53.7364 61.2011 54 61.837 54 62.5C54 63.163 53.7364 63.7989 53.2676 64.2678C52.7987 64.7366 52.163 65 51.5 65C50.837 65 50.2013 64.7366 49.7324 64.2678C49.2636 63.7989 49 63.163 49 62.5ZM34 62.5C34 61.837 34.2636 61.2011 34.7324 60.7322C35.2013 60.2634 35.837 60 36.5 60C37.163 60 37.7987 60.2634 38.2676 60.7322C38.7364 61.2011 39 61.837 39 62.5C39 63.163 38.7364 63.7989 38.2676 64.2678C37.7987 64.7366 37.163 65 36.5 65C35.837 65 35.2013 64.7366 34.7324 64.2678C34.2636 63.7989 34 63.163 34 62.5ZM19 62.5C19 61.837 19.2636 61.2011 19.7324 60.7322C20.2013 60.2634 20.837 60 21.5 60C22.163 60 22.7987 60.2634 23.2676 60.7322C23.7364 61.2011 24 61.837 24 62.5C24 63.163 23.7364 63.7989 23.2676 64.2678C22.7987 64.7366 22.163 65 21.5 65C20.837 65 20.2013 64.7366 19.7324 64.2678C19.2636 63.7989 19 63.163 19 62.5ZM4 62.5C4 61.837 4.26358 61.2011 4.73242 60.7322C5.20126 60.2634 5.83696 60 6.5 60C7.16304 60 7.79874 60.2634 8.26758 60.7322C8.73642 61.2011 9 61.837 9 62.5C9 63.163 8.73642 63.7989 8.26758 64.2678C7.79874 64.7366 7.16304 65 6.5 65C5.83696 65 5.20126 64.7366 4.73242 64.2678C4.26358 63.7989 4 63.163 4 62.5ZM154 47.5C154 46.837 154.264 46.2011 154.732 45.7322C155.201 45.2634 155.837 45 156.5 45C157.163 45 157.799 45.2634 158.268 45.7322C158.736 46.2011 159 46.837 159 47.5C159 48.163 158.736 48.7989 158.268 49.2678C157.799 49.7366 157.163 50 156.5 50C155.837 50 155.201 49.7366 154.732 49.2678C154.264 48.7989 154 48.163 154 47.5ZM139 47.5C139 46.837 139.264 46.2011 139.732 45.7322C140.201 45.2634 140.837 45 141.5 45C142.163 45 142.799 45.2634 143.268 45.7322C143.736 46.2011 144 46.837 144 47.5C144 48.163 143.736 48.7989 143.268 49.2678C142.799 49.7366 142.163 50 141.5 50C140.837 50 140.201 49.7366 139.732 49.2678C139.264 48.7989 139 48.163 139 47.5ZM124 47.5C124 46.837 124.264 46.2011 124.732 45.7322C125.201 45.2634 125.837 45 126.5 45C127.163 45 127.799 45.2634 128.268 45.7322C128.736 46.2011 129 46.837 129 47.5C129 48.163 128.736 48.7989 128.268 49.2678C127.799 49.7366 127.163 50 126.5 50C125.837 50 125.201 49.7366 124.732 49.2678C124.264 48.7989 124 48.163 124 47.5ZM109 47.5C109 46.837 109.264 46.2011 109.732 45.7322C110.201 45.2634 110.837 45 111.5 45C112.163 45 112.799 45.2634 113.268 45.7322C113.736 46.2011 114 46.837 114 47.5C114 48.163 113.736 48.7989 113.268 49.2678C112.799 49.7366 112.163 50 111.5 50C110.837 50 110.201 49.7366 109.732 49.2678C109.264 48.7989 109 48.163 109 47.5ZM94 47.5C94 46.837 94.2636 46.2011 94.7324 45.7322C95.2013 45.2634 95.837 45 96.5 45C97.163 45 97.7987 45.2634 98.2676 45.7322C98.7364 46.2011 99 46.837 99 47.5C99 48.163 98.7364 48.7989 98.2676 49.2678C97.7987 49.7366 97.163 50 96.5 50C95.837 50 95.2013 49.7366 94.7324 49.2678C94.2636 48.7989 94 48.163 94 47.5ZM79 47.5C79 46.837 79.2636 46.2011 79.7324 45.7322C80.2013 45.2634 80.837 45 81.5 45C82.163 45 82.7987 45.2634 83.2676 45.7322C83.7364 46.2011 84 46.837 84 47.5C84 48.163 83.7364 48.7989 83.2676 49.2678C82.7987 49.7366 82.163 50 81.5 50C80.837 50 80.2013 49.7366 79.7324 49.2678C79.2636 48.7989 79 48.163 79 47.5ZM64 47.5C64 46.837 64.2636 46.2011 64.7324 45.7322C65.2013 45.2634 65.837 45 66.5 45C67.163 45 67.7987 45.2634 68.2676 45.7322C68.7364 46.2011 69 46.837 69 47.5C69 48.163 68.7364 48.7989 68.2676 49.2678C67.7987 49.7366 67.163 50 66.5 50C65.837 50 65.2013 49.7366 64.7324 49.2678C64.2636 48.7989 64 48.163 64 47.5ZM49 47.5C49 46.837 49.2636 46.2011 49.7324 45.7322C50.2013 45.2634 50.837 45 51.5 45C52.163 45 52.7987 45.2634 53.2676 45.7322C53.7364 46.2011 54 46.837 54 47.5C54 48.163 53.7364 48.7989 53.2676 49.2678C52.7987 49.7366 52.163 50 51.5 50C50.837 50 50.2013 49.7366 49.7324 49.2678C49.2636 48.7989 49 48.163 49 47.5ZM34 47.5C34 46.837 34.2636 46.2011 34.7324 45.7322C35.2013 45.2634 35.837 45 36.5 45C37.163 45 37.7987 45.2634 38.2676 45.7322C38.7364 46.2011 39 46.837 39 47.5C39 48.163 38.7364 48.7989 38.2676 49.2678C37.7987 49.7366 37.163 50 36.5 50C35.837 50 35.2013 49.7366 34.7324 49.2678C34.2636 48.7989 34 48.163 34 47.5ZM19 47.5C19 46.837 19.2636 46.2011 19.7324 45.7322C20.2013 45.2634 20.837 45 21.5 45C22.163 45 22.7987 45.2634 23.2676 45.7322C23.7364 46.2011 24 46.837 24 47.5C24 48.163 23.7364 48.7989 23.2676 49.2678C22.7987 49.7366 22.163 50 21.5 50C20.837 50 20.2013 49.7366 19.7324 49.2678C19.2636 48.7989 19 48.163 19 47.5ZM4 47.5C4 46.837 4.26358 46.2011 4.73242 45.7322C5.20126 45.2634 5.83696 45 6.5 45C7.16304 45 7.79874 45.2634 8.26758 45.7322C8.73642 46.2011 9 46.837 9 47.5C9 48.163 8.73642 48.7989 8.26758 49.2678C7.79874 49.7366 7.16304 50 6.5 50C5.83696 50 5.20126 49.7366 4.73242 49.2678C4.26358 48.7989 4 48.163 4 47.5ZM154 32.5C154 31.837 154.264 31.2011 154.732 30.7322C155.201 30.2634 155.837 30 156.5 30C157.163 30 157.799 30.2634 158.268 30.7322C158.736 31.2011 159 31.837 159 32.5C159 33.163 158.736 33.7989 158.268 34.2678C157.799 34.7366 157.163 35 156.5 35C155.837 35 155.201 34.7366 154.732 34.2678C154.264 33.7989 154 33.163 154 32.5ZM139 32.5C139 31.837 139.264 31.2011 139.732 30.7322C140.201 30.2634 140.837 30 141.5 30C142.163 30 142.799 30.2634 143.268 30.7322C143.736 31.2011 144 31.837 144 32.5C144 33.163 143.736 33.7989 143.268 34.2678C142.799 34.7366 142.163 35 141.5 35C140.837 35 140.201 34.7366 139.732 34.2678C139.264 33.7989 139 33.163 139 32.5ZM124 32.5C124 31.837 124.264 31.2011 124.732 30.7322C125.201 30.2634 125.837 30 126.5 30C127.163 30 127.799 30.2634 128.268 30.7322C128.736 31.2011 129 31.837 129 32.5C129 33.163 128.736 33.7989 128.268 34.2678C127.799 34.7366 127.163 35 126.5 35C125.837 35 125.201 34.7366 124.732 34.2678C124.264 33.7989 124 33.163 124 32.5ZM109 32.5C109 31.837 109.264 31.2011 109.732 30.7322C110.201 30.2634 110.837 30 111.5 30C112.163 30 112.799 30.2634 113.268 30.7322C113.736 31.2011 114 31.837 114 32.5C114 33.163 113.736 33.7989 113.268 34.2678C112.799 34.7366 112.163 35 111.5 35C110.837 35 110.201 34.7366 109.732 34.2678C109.264 33.7989 109 33.163 109 32.5ZM94 32.5C94 31.837 94.2636 31.2011 94.7324 30.7322C95.2013 30.2634 95.837 30 96.5 30C97.163 30 97.7987 30.2634 98.2676 30.7322C98.7364 31.2011 99 31.837 99 32.5C99 33.163 98.7364 33.7989 98.2676 34.2678C97.7987 34.7366 97.163 35 96.5 35C95.837 35 95.2013 34.7366 94.7324 34.2678C94.2636 33.7989 94 33.163 94 32.5ZM79 32.5C79 31.837 79.2636 31.2011 79.7324 30.7322C80.2013 30.2634 80.837 30 81.5 30C82.163 30 82.7987 30.2634 83.2676 30.7322C83.7364 31.2011 84 31.837 84 32.5C84 33.163 83.7364 33.7989 83.2676 34.2678C82.7987 34.7366 82.163 35 81.5 35C80.837 35 80.2013 34.7366 79.7324 34.2678C79.2636 33.7989 79 33.163 79 32.5ZM64 32.5C64 31.837 64.2636 31.2011 64.7324 30.7322C65.2013 30.2634 65.837 30 66.5 30C67.163 30 67.7987 30.2634 68.2676 30.7322C68.7364 31.2011 69 31.837 69 32.5C69 33.163 68.7364 33.7989 68.2676 34.2678C67.7987 34.7366 67.163 35 66.5 35C65.837 35 65.2013 34.7366 64.7324 34.2678C64.2636 33.7989 64 33.163 64 32.5ZM49 32.5C49 31.837 49.2636 31.2011 49.7324 30.7322C50.2013 30.2634 50.837 30 51.5 30C52.163 30 52.7987 30.2634 53.2676 30.7322C53.7364 31.2011 54 31.837 54 32.5C54 33.163 53.7364 33.7989 53.2676 34.2678C52.7987 34.7366 52.163 35 51.5 35C50.837 35 50.2013 34.7366 49.7324 34.2678C49.2636 33.7989 49 33.163 49 32.5ZM34 32.5C34 31.837 34.2636 31.2011 34.7324 30.7322C35.2013 30.2634 35.837 30 36.5 30C37.163 30 37.7987 30.2634 38.2676 30.7322C38.7364 31.2011 39 31.837 39 32.5C39 33.163 38.7364 33.7989 38.2676 34.2678C37.7987 34.7366 37.163 35 36.5 35C35.837 35 35.2013 34.7366 34.7324 34.2678C34.2636 33.7989 34 33.163 34 32.5ZM19 32.5C19 31.837 19.2636 31.2011 19.7324 30.7322C20.2013 30.2634 20.837 30 21.5 30C22.163 30 22.7987 30.2634 23.2676 30.7322C23.7364 31.2011 24 31.837 24 32.5C24 33.163 23.7364 33.7989 23.2676 34.2678C22.7987 34.7366 22.163 35 21.5 35C20.837 35 20.2013 34.7366 19.7324 34.2678C19.2636 33.7989 19 33.163 19 32.5ZM4 32.5C4 31.837 4.26358 31.2011 4.73242 30.7322C5.20126 30.2634 5.83696 30 6.5 30C7.16304 30 7.79874 30.2634 8.26758 30.7322C8.73642 31.2011 9 31.837 9 32.5C9 33.163 8.73642 33.7989 8.26758 34.2678C7.79874 34.7366 7.16304 35 6.5 35C5.83696 35 5.20126 34.7366 4.73242 34.2678C4.26358 33.7989 4 33.163 4 32.5ZM154 17.5C154 16.837 154.264 16.2011 154.732 15.7322C155.201 15.2634 155.837 15 156.5 15C157.163 15 157.799 15.2634 158.268 15.7322C158.736 16.2011 159 16.837 159 17.5C159 18.163 158.736 18.7989 158.268 19.2678C157.799 19.7366 157.163 20 156.5 20C155.837 20 155.201 19.7366 154.732 19.2678C154.264 18.7989 154 18.163 154 17.5ZM139 17.5C139 16.837 139.264 16.2011 139.732 15.7322C140.201 15.2634 140.837 15 141.5 15C142.163 15 142.799 15.2634 143.268 15.7322C143.736 16.2011 144 16.837 144 17.5C144 18.163 143.736 18.7989 143.268 19.2678C142.799 19.7366 142.163 20 141.5 20C140.837 20 140.201 19.7366 139.732 19.2678C139.264 18.7989 139 18.163 139 17.5ZM124 17.5C124 16.837 124.264 16.2011 124.732 15.7322C125.201 15.2634 125.837 15 126.5 15C127.163 15 127.799 15.2634 128.268 15.7322C128.736 16.2011 129 16.837 129 17.5C129 18.163 128.736 18.7989 128.268 19.2678C127.799 19.7366 127.163 20 126.5 20C125.837 20 125.201 19.7366 124.732 19.2678C124.264 18.7989 124 18.163 124 17.5ZM109 17.5C109 16.837 109.264 16.2011 109.732 15.7322C110.201 15.2634 110.837 15 111.5 15C112.163 15 112.799 15.2634 113.268 15.7322C113.736 16.2011 114 16.837 114 17.5C114 18.163 113.736 18.7989 113.268 19.2678C112.799 19.7366 112.163 20 111.5 20C110.837 20 110.201 19.7366 109.732 19.2678C109.264 18.7989 109 18.163 109 17.5ZM94 17.5C94 16.837 94.2636 16.2011 94.7324 15.7322C95.2013 15.2634 95.837 15 96.5 15C97.163 15 97.7987 15.2634 98.2676 15.7322C98.7364 16.2011 99 16.837 99 17.5C99 18.163 98.7364 18.7989 98.2676 19.2678C97.7987 19.7366 97.163 20 96.5 20C95.837 20 95.2013 19.7366 94.7324 19.2678C94.2636 18.7989 94 18.163 94 17.5ZM79 17.5C79 16.837 79.2636 16.2011 79.7324 15.7322C80.2013 15.2634 80.837 15 81.5 15C82.163 15 82.7987 15.2634 83.2676 15.7322C83.7364 16.2011 84 16.837 84 17.5C84 18.163 83.7364 18.7989 83.2676 19.2678C82.7987 19.7366 82.163 20 81.5 20C80.837 20 80.2013 19.7366 79.7324 19.2678C79.2636 18.7989 79 18.163 79 17.5ZM64 17.5C64 16.837 64.2636 16.2011 64.7324 15.7322C65.2013 15.2634 65.837 15 66.5 15C67.163 15 67.7987 15.2634 68.2676 15.7322C68.7364 16.2011 69 16.837 69 17.5C69 18.163 68.7364 18.7989 68.2676 19.2678C67.7987 19.7366 67.163 20 66.5 20C65.837 20 65.2013 19.7366 64.7324 19.2678C64.2636 18.7989 64 18.163 64 17.5ZM49 17.5C49 16.837 49.2636 16.2011 49.7324 15.7322C50.2013 15.2634 50.837 15 51.5 15C52.163 15 52.7987 15.2634 53.2676 15.7322C53.7364 16.2011 54 16.837 54 17.5C54 18.163 53.7364 18.7989 53.2676 19.2678C52.7987 19.7366 52.163 20 51.5 20C50.837 20 50.2013 19.7366 49.7324 19.2678C49.2636 18.7989 49 18.163 49 17.5ZM34 17.5C34 16.837 34.2636 16.2011 34.7324 15.7322C35.2013 15.2634 35.837 15 36.5 15C37.163 15 37.7987 15.2634 38.2676 15.7322C38.7364 16.2011 39 16.837 39 17.5C39 18.163 38.7364 18.7989 38.2676 19.2678C37.7987 19.7366 37.163 20 36.5 20C35.837 20 35.2013 19.7366 34.7324 19.2678C34.2636 18.7989 34 18.163 34 17.5ZM19 17.5C19 16.837 19.2636 16.2011 19.7324 15.7322C20.2013 15.2634 20.837 15 21.5 15C22.163 15 22.7987 15.2634 23.2676 15.7322C23.7364 16.2011 24 16.837 24 17.5C24 18.163 23.7364 18.7989 23.2676 19.2678C22.7987 19.7366 22.163 20 21.5 20C20.837 20 20.2013 19.7366 19.7324 19.2678C19.2636 18.7989 19 18.163 19 17.5ZM4 17.5C4 16.837 4.26358 16.2011 4.73242 15.7322C5.20126 15.2634 5.83696 15 6.5 15C7.16304 15 7.79874 15.2634 8.26758 15.7322C8.73642 16.2011 9 16.837 9 17.5C9 18.163 8.73642 18.7989 8.26758 19.2678C7.79874 19.7366 7.16304 20 6.5 20C5.83696 20 5.20126 19.7366 4.73242 19.2678C4.26358 18.7989 4 18.163 4 17.5ZM154 2.5C154 1.83696 154.264 1.20108 154.732 0.732239C155.201 0.263398 155.837 0 156.5 0C157.163 0 157.799 0.263398 158.268 0.732239C158.736 1.20108 159 1.83696 159 2.5C159 3.16304 158.736 3.79892 158.268 4.26776C157.799 4.7366 157.163 5 156.5 5C155.837 5 155.201 4.7366 154.732 4.26776C154.264 3.79892 154 3.16304 154 2.5ZM139 2.5C139 1.83696 139.264 1.20108 139.732 0.732239C140.201 0.263398 140.837 0 141.5 0C142.163 0 142.799 0.263398 143.268 0.732239C143.736 1.20108 144 1.83696 144 2.5C144 3.16304 143.736 3.79892 143.268 4.26776C142.799 4.7366 142.163 5 141.5 5C140.837 5 140.201 4.7366 139.732 4.26776C139.264 3.79892 139 3.16304 139 2.5ZM124 2.5C124 1.83696 124.264 1.20108 124.732 0.732239C125.201 0.263398 125.837 0 126.5 0C127.163 0 127.799 0.263398 128.268 0.732239C128.736 1.20108 129 1.83696 129 2.5C129 3.16304 128.736 3.79892 128.268 4.26776C127.799 4.7366 127.163 5 126.5 5C125.837 5 125.201 4.7366 124.732 4.26776C124.264 3.79892 124 3.16304 124 2.5ZM109 2.5C109 1.83696 109.264 1.20108 109.732 0.732239C110.201 0.263398 110.837 0 111.5 0C112.163 0 112.799 0.263398 113.268 0.732239C113.736 1.20108 114 1.83696 114 2.5C114 3.16304 113.736 3.79892 113.268 4.26776C112.799 4.7366 112.163 5 111.5 5C110.837 5 110.201 4.7366 109.732 4.26776C109.264 3.79892 109 3.16304 109 2.5ZM94 2.5C94 1.83696 94.2636 1.20108 94.7324 0.732239C95.2013 0.263398 95.837 0 96.5 0C97.163 0 97.7987 0.263398 98.2676 0.732239C98.7364 1.20108 99 1.83696 99 2.5C99 3.16304 98.7364 3.79892 98.2676 4.26776C97.7987 4.7366 97.163 5 96.5 5C95.837 5 95.2013 4.7366 94.7324 4.26776C94.2636 3.79892 94 3.16304 94 2.5ZM79 2.5C79 1.83696 79.2636 1.20108 79.7324 0.732239C80.2013 0.263398 80.837 0 81.5 0C82.163 0 82.7987 0.263398 83.2676 0.732239C83.7364 1.20108 84 1.83696 84 2.5C84 3.16304 83.7364 3.79892 83.2676 4.26776C82.7987 4.7366 82.163 5 81.5 5C80.837 5 80.2013 4.7366 79.7324 4.26776C79.2636 3.79892 79 3.16304 79 2.5ZM64 2.5C64 1.83696 64.2636 1.20108 64.7324 0.732239C65.2013 0.263398 65.837 0 66.5 0C67.163 0 67.7987 0.263398 68.2676 0.732239C68.7364 1.20108 69 1.83696 69 2.5C69 3.16304 68.7364 3.79892 68.2676 4.26776C67.7987 4.7366 67.163 5 66.5 5C65.837 5 65.2013 4.7366 64.7324 4.26776C64.2636 3.79892 64 3.16304 64 2.5ZM49 2.5C49 1.83696 49.2636 1.20108 49.7324 0.732239C50.2013 0.263398 50.837 0 51.5 0C52.163 0 52.7987 0.263398 53.2676 0.732239C53.7364 1.20108 54 1.83696 54 2.5C54 3.16304 53.7364 3.79892 53.2676 4.26776C52.7987 4.7366 52.163 5 51.5 5C50.837 5 50.2013 4.7366 49.7324 4.26776C49.2636 3.79892 49 3.16304 49 2.5ZM34 2.5C34 1.83696 34.2636 1.20108 34.7324 0.732239C35.2013 0.263398 35.837 0 36.5 0C37.163 0 37.7987 0.263398 38.2676 0.732239C38.7364 1.20108 39 1.83696 39 2.5C39 3.16304 38.7364 3.79892 38.2676 4.26776C37.7987 4.7366 37.163 5 36.5 5C35.837 5 35.2013 4.7366 34.7324 4.26776C34.2636 3.79892 34 3.16304 34 2.5ZM19 2.5C19 1.83696 19.2636 1.20108 19.7324 0.732239C20.2013 0.263398 20.837 0 21.5 0C22.163 0 22.7987 0.263398 23.2676 0.732239C23.7364 1.20108 24 1.83696 24 2.5C24 3.16304 23.7364 3.79892 23.2676 4.26776C22.7987 4.7366 22.163 5 21.5 5C20.837 5 20.2013 4.7366 19.7324 4.26776C19.2636 3.79892 19 3.16304 19 2.5ZM4 2.5C4 1.83696 4.26358 1.20108 4.73242 0.732239C5.20126 0.263398 5.83696 0 6.5 0C7.16304 0 7.79874 0.263398 8.26758 0.732239C8.73642 1.20108 9 1.83696 9 2.5C9 3.16304 8.73642 3.79892 8.26758 4.26776C7.79874 4.7366 7.16304 5 6.5 5C5.83696 5 5.20126 4.7366 4.73242 4.26776C4.26358 3.79892 4 3.16304 4 2.5Z" fill="url(#paint0_linear)"/>
</g>
<defs>
<filter id="filter0_d" x="0" y="0" width="163" height="193" filterUnits="userSpaceOnUse" color-interpolation-filters="sRGB">
<feFlood flood-opacity="0" result="BackgroundImageFix"/>
<feColorMatrix in="SourceAlpha" type="matrix" values="0 0 0 0 0 0 0 0 0 0 0 0 0 0 0 0 0 0 127 0"/>
<feOffset dy="4"/>
<feGaussianBlur stdDeviation="2"/>
<feColorMatrix type="matrix" values="0 0 0 0 0 0 0 0 0 0 0 0 0 0 0 0 0 0 0.25 0"/>
<feBlend mode="normal" in2="BackgroundImageFix" result="effect1_dropShadow"/>
<feBlend mode="normal" in="SourceGraphic" in2="effect1_dropShadow" result="shape"/>
</filter>
<linearGradient id="paint0_linear" x1="81.5" y1="0" x2="81.5" y2="185" gradientUnits="userSpaceOnUse">
<stop stop-color="white"/>
<stop offset="1" stop-color="#1FA391"/>
</linearGradient>
</defs>
</svg>
